<?xml version="1.0" encoding="UTF-8"?><svg id="Layer_3" xmlns="http://www.w3.org/2000/svg" viewBox="0 0 125.28 172.74"><defs><style>.cls-1,.cls-2{fill:#fff;}.cls-2{fill-rule:evenodd;}</style></defs><rect x=".65" y="3.21" width="121.82" height="165.67"/><g><path class="cls-2" d="M.15,0H125.28V172.74H0V.42C0,.22-.02,.02,.15,0ZM4.88,2.92V168.98H120.41V2.51H5.02c-.16,.02-.15,.22-.14,.42Z"/><g><path class="cls-1" d="M45.79,11.87c0,7.38,1.07,14.8,1.07,22.32-1.24,.19-2.55,.38-4.07,.62v-5.69"/><polygon class="cls-1" points="32.1 29.84 35.84 29.84 35.97 33 33.79 31.96 32.28 30.14 32.1 29.84"/><polyline class="cls-1" points="23.08 10.63 29.17 10.63 29.4 14.17 28.2 13.3 26.67 11.46 24.67 11.34 23.92 11.39 23.08 10.63"/><rect class="cls-1" x="42.66" y="10.84" width="4.13" height="5.42"/><polygon class="cls-1" points="64.85 30.64 65.05 32.61 67.7 32.69 67.79 31.62 65.31 30.37 65.01 30.53 64.85 30.64"/><polyline class="cls-1" points="103.52 10.87 103.52 14.19 102.04 14.19 101.78 13.27 102.13 11.86 102.87 11.41 103.49 10.9"/><polygon class="cls-1" points="100.71 23.31 103.71 23.74 103.71 28.24 103.42 28.19 102.75 27.1 102.05 24.57 100.26 23.78 100.71 23.31"/><polygon class="cls-1" points="96.59 35.52 96.56 40.11 104.08 44.55 103.56 40.3 101.13 37.81 98.97 35.78 97.44 35.21 96.59 35.52"/><polygon class="cls-1" points="100.7 36.61 104.27 38.65 104.27 44.66 103.82 44.4 103.16 42.64 102.7 40.99 100.8 38.07 100.7 36.61"/><polygon class="cls-1" points="108.32 10.82 104.37 10.82 107.42 34.35 107.42 47.83 111.8 52.63 110.99 46.49 110.23 44.64 109.75 41.92 109.04 30.07 107.46 18.65 107.65 14.55 107.75 12.79 107.94 11.55 108.32 10.82"/><path class="cls-1" d="M32.77,18.83c1.14,3.21,2.9,6.19,4.26,9.33,.5,1.19,.62,2.57,.79,3.88,0,.04,0,.08-.02,.12-.03,.43-.44,2.34-.91,2.34-.38,0-1.44-1.49-1.5-2.03l-.14-.39c-.17-.55,.19-1.04,.14-1.68l-2.72-.17c-.4,3.35,.36,4.83,2.9,5.35,3.74,.79,6.59-.93,6.14-4.66-.26-2.07-.59-4.37-1.77-6.32"/><polygon class="cls-1" points="89.78 14.22 89.77 14.1 89.33 10.82 85.87 10.82 85.85 11.57 86.92 12.05 88.73 14.34 89.26 14.41 89.78 14.22"/><polygon class="cls-1" points="85.85 29.55 85.85 35.83 89.36 36.9 87.97 33.97 87.35 30.95 86.45 29.57 85.85 29.55"/><polygon class="cls-1" points="90.45 31.3 91.91 37.87 94.25 38.95 94.36 37.78 93.39 34.22 93.12 32.92 92.23 31.49 91.23 31.06 90.45 31.3"/><polyline class="cls-1" points="91.91 37.87 95.38 39.48 95.38 39.35 94.71 38.53 93.98 38.1 93.09 37.57 92.29 37.52 92.02 37.7 91.92 37.85"/><path class="cls-1" d="M81,34.4c2.14-.05,3.45-1.33,3.45-3.5v-13.23c-.02-1.26,.1-2.52-.07-3.76-.31-2.4-2.52-3.78-5.57-3.59-2.5,.17-4.26,1.97-4.28,4.59-.02,4.43,0,8.83,0,13.23,0,4.02,2.4,6.33,6.47,6.26Zm-2.4-19.72c0-.86,.38-1.56,.85-1.56,.44,0,.81,.63,.84,1.43,.02,.07,.03,.13,.04,.2,.09,2.59,.17,5.19,.17,7.78,0,2.41,.04,4.82-.06,7.23,0,.06,.01,.12,.01,.19,0,.86-.38,1.56-.85,1.56-.43,0-.78-.58-.84-1.34,0-.04-.02-.08-.02-.12-.12-5.09-.17-10.19-.14-15.28,0-.02,0-.04,0-.06v-.03Zm-45.08,6.61c.95,2.5,2.43,4.81,3.4,7.31,.52,1.31,.52,2.88,.59,4.33,0,.06-.02,.13-.05,.19-.1,.51-.39,.88-.74,.88-.03,0-.05,0-.08-.01h-.02c-.38-.09-.68-.61-.68-1.26,0-.07,0-.15,.01-.22-.03-.57-.02-1.15-.12-1.7-.07-.36-.39-.9-.68-.93-.98-.12-2-.05-3.07-.05,0,1.69-.07,3.17,.02,4.64,.07,1.52,.88,2.5,2.07,2.55,2.4,.1,4.52-.83,6.33-2.36,.45-.38,.9-1.09,.9-1.67,0-1.93,.24-4.02-.38-5.76-1.14-3.21-2.9-6.19-4.26-9.33-.5-1.19-.62-2.57-.79-3.88,0-.04,0-.08,.02-.12,.03-.43,.31-.86,.78-.86,.38,0,.69,.42,.75,.97h0c.17,.56,.1,1.18,.14,1.82h3.45c.4-3.35-.36-4.83-2.9-5.35-3.74-.79-6.59,.93-6.14,4.66,.26,2.07,.69,4.19,1.43,6.14Zm9.26,10.66c0,3.02-.07,2.97,2.83,2.38,.88-.19,1.21-.52,1.19-1.45-.07-2.69-.05-5.38-.02-8.07,0-.23-.03-.48,0-.7v-.72h1.85v1.71h-.04v8.69c1.52-.24,2.83-.43,4.07-.62V10.94h-4.05v8.47h-1.83V10.84h-2.19c-1.95,0-1.98,0-1.95,1.9,.05,6.4,.14,12.8,.14,19.2ZM14.92,50.28c.48-.3,.95-.66,1.38-1.03,.44-.38,.84-.8,1.21-1.24,.37-.45,.71-.92,1.02-1.42,.31-.48,.58-.98,.81-1.5,.11-.27,.21-.54,.29-.8,.09-.28,.19-.57,.26-.86,.05-.2,.19-.68,.12-.86l.02,.09h0c0-.09,0-.18,0-.27,0-.21,0-.41,0-.62,0-.5,0-.99,0-1.49v-2.84c0-.2,0-.39,0-.6h-3.96c0,1.45,.05,2.81-.02,4.14-.05,1.24-.22,2.48-.34,3.73,0,.07-.01,.13-.02,.2h-.05s-.07,.06-.14,.06c-.14,0-.33,.01-.46-.04-.11-.04-.17-.22-.2-.32-.05-.13-.06-.26-.09-.41-.04-.23-.08-.61-.06-.91,0-.09-.02-.19-.02-.29-.05-8.5-.07-16.97-.1-25.46,0-.93-.04-1.91,.03-2.86,0-.76,.34-1.37,.76-1.37,.37,0,.68,.48,.75,1.11,.01,.04,.02,.08,.03,.12,.12,1.02,.05,2.09,.05,3.24h4.16c0-.83,0-1.52-.02-2.17-.02-3.31-1.81-5.26-4.81-5.26-3.19,0-5.09,1.93-5.09,5.28-.02,10.26-.02,20.49,0,30.75,0,.81,.12,1.67,.38,2.45,.71,2.17,2.17,2.64,4.09,1.43Zm20.56,4.55c-6.21,3.69-9.16,10.14-7.88,17.02,.93,5.04,4,8.57,8.02,11.4,4.64,3.28,9.95,5.12,15.18,7.16,4.19,1.64,8.5,3.02,12.23,5.62,2.86,2,4.71,4.55,4.38,8.28-.12,1.36-.05,2.69-.02,4.05,.05,1.43-.64,2.43-1.86,3-.81,.38-1.71,.67-2.62,.81-4.9,.83-7.21-1.1-7.21-5.95v-8.9c-.33-.07-.5-.14-.67-.14-8.85,0-17.73,0-26.58-.02-.86,0-1.17,.38-1.12,1.19,.14,3.09,.07,6.23,.52,9.28,.76,5.02,3.31,9,7.76,11.64,3.78,2.26,7.97,3.24,12.26,3.83,2.59,.38,5.21,.57,8.02,.88v8.64h14.87c0-2.95,0-5.76,.05-8.73,1.88-.19,3.62-.33,5.35-.57,4.62-.62,9.19-1.5,13.28-3.83,4.09-2.33,7.12-5.62,7.78-10.42,.48-3.47,.6-7,.62-10.52,.05-3.86-1.48-7.16-4.12-10.02-3.71-4-8.45-6.31-13.4-8.21-5.45-2.07-10.99-3.9-16.44-6-6.64-2.55-8.21-4.83-8.02-10.97v-.14c0-1.52,.76-2.71,2.19-3.02,1.81-.38,3.76-.67,5.59-.45,2.97,.33,3.97,1.76,3.97,4.69v6.57h28.32c.21-4.31-.09-8.4-2.43-12.11-2.57-4.09-6.62-6.02-11.02-7.24-3.78-1.05-7.66-1.69-11.71-2.57v-6.73h-14.92v6.97c-1.19,.12-2.21,.21-3.21,.36-6,.83-11.88,2.02-17.18,5.19ZM63.15,17.27c.81,4.64,1.33,9.28,1.76,13.95,.09,1.05,.33,1.42,1.42,1.33,.4-.02,.86,.15,1.36,.15,.55-5.28,1.28-10.36,1.83-15.55,.14,0-.1,0,.05,0l.2,15.71c1.19,.14,2.19,.24,3.31,.36V10.89h-5.5c-.28,2.68-.55,5.32-.82,7.96h0v.11c-.06,.49-.11,.98-.16,1.47h-.02l-.18,1.57-.17-1.57h-.01c-.33-3.19-.69-6.38-1.02-9.57h-5.47v21.66h3.43v-15.25Zm23.35,18.71c.81,.38,1.71,.57,2.86,.93v-4.55l-.03-6.19,2.08,9.47c.1,.42,.2,.83,.3,1.24,.12,.48,.38,.8,.78,1.03,.81,.5,1.79,1.04,2.88,1.49,0-9.61,0-19.04,.02-28.46h-3.57v14.23c-.36-.14-.4-.31-.43-.48-.64-4.19-1.33-8.4-1.9-12.61-.12-.93-.45-1.31-1.38-1.26-.71,.02-1.45,0-2.09,0-.1,.29-.17,.38-.17,.45,0,7.9-.02,15.78,0,23.65,0,.36,.33,.9,.64,1.05Zm12.61,5.52c1.4,.52,2.7,1.33,3.98,2.16,.29,.19,.68,.72,1.16,.98,0-1.43-.29-2.74-.17-3.93,.08-.79,0-1.45-.28-1.99l-3.03-2.01v-.06h-.01v-3.3h.01c-.02-1.81,0-3.63,0-5.52,1.05,.14,1.88,.26,2.83,.38,0-.88-.07-1.64,.02-2.36,.16-1.08-.11-1.58-.79-2l-2.11-.05,.02-1.71s0-.08,0-.12c.04-1.33,.03-2.66,.03-4l-.03,.02,.05-3.81h2.35c.13-.03,.25-.08,.36-.11v-3.21h-6.88c0,.71,0,1.24-.02,1.79,0,8.12,.07,16.23-.05,24.34-.05,2.17,.31,3.64,2.55,4.5Zm10.69-19.54c-.12-.02-.26-.02-.38-.02-.36-3.64-.71-7.31-1.1-11.11-1,0-1.93,.02-2.83-.02-.83-.02-1.02,.36-.93,1.12,.69,5.09,1.36,10.18,2.07,15.28,.6,4.31,1.17,8.62,.98,12.99-.09,2.19-.02,4.36,0,6.54,0,.45,.02,1,.26,1.31,1.09,1.4,2.28,2.71,3.43,4.07h.45c-1.29-13.87,1.05-27.49,2.93-41.22h-3.88c-.33,3.74-.67,7.4-1,11.07ZM27.17,40.78l3.85-2.44-1.78-26.61c-.04-.38-.52-1.03-.85-1.05-1.74-.1-3.5-.05-5.31-.05-.74,11.42-1.45,22.66-2.19,34.13l3.98-2.73s.05-.08,.08-.12v-3.4h2.01l.21,2.27Zm-1.9-7c.19-5.06,.38-10.08,.56-15.09l-.03,.09,.12-2.62,.05-1.45h.01l.09-1.96,.11,1.96h.02c.02,.47,.04,.94,.05,1.42l.05,.98v.05c.19,5.5,.4,11.02,.61,16.62h-1.67Z"/><g><path class="cls-1" d="M10.92,140.55h4.17c2.78,0,4.67,.1,5.65,.29s1.79,.68,2.41,1.47c.62,.79,.93,2.05,.93,3.78,0,1.58-.22,2.64-.66,3.19-.44,.54-1.3,.87-2.59,.98,1.17,.26,1.95,.61,2.35,1.04s.65,.83,.75,1.2,.15,1.37,.15,3v5.36h-5.48v-6.75c0-1.09-.1-1.76-.29-2.02-.19-.26-.69-.39-1.51-.39v9.16h-5.9v-20.31Zm5.9,3.47v4.52c.66,0,1.13-.08,1.39-.25s.4-.69,.4-1.59v-1.12c0-.64-.13-1.07-.39-1.27-.26-.2-.73-.3-1.41-.3Z"/><path class="cls-1" d="M26.37,140.55h9.83v4.06h-3.94v3.85h3.68v3.87h-3.68v4.47h4.33v4.07h-10.23v-20.31Z"/><path class="cls-1" d="M52.06,149.39h-5.9v-3.53c0-1.03-.06-1.67-.19-1.92s-.4-.38-.83-.38c-.49,0-.79,.16-.92,.46-.13,.31-.2,.98-.2,2.01v9.43c0,.99,.07,1.63,.2,1.93,.13,.3,.42,.45,.88,.45s.73-.15,.86-.45,.2-1.01,.2-2.13v-2.55h5.9v.79c0,2.1-.17,3.59-.5,4.47s-1.06,1.65-2.2,2.31c-1.13,.66-2.53,.99-4.2,.99s-3.15-.28-4.27-.84-1.86-1.34-2.23-2.33-.55-2.48-.55-4.47v-5.93c0-1.46,.06-2.56,.17-3.29,.11-.73,.45-1.44,1-2.11s1.33-1.21,2.31-1.6,2.12-.58,3.4-.58c1.74,0,3.17,.3,4.3,.9,1.13,.6,1.87,1.35,2.23,2.25,.35,.9,.53,2.29,.53,4.19v1.93Z"/><path class="cls-1" d="M67.65,152.44c0,2.04-.05,3.49-.16,4.33s-.44,1.62-1.01,2.33c-.56,.7-1.33,1.24-2.29,1.62-.96,.38-2.08,.56-3.36,.56s-2.3-.18-3.27-.53c-.97-.36-1.74-.89-2.33-1.6s-.94-1.49-1.05-2.32c-.11-.84-.17-2.3-.17-4.39v-3.48c0-2.04,.05-3.49,.16-4.33,.11-.85,.44-1.62,1.01-2.33,.56-.7,1.33-1.24,2.29-1.62,.96-.38,2.08-.56,3.36-.56s2.3,.18,3.27,.53,1.74,.89,2.33,1.6c.59,.71,.94,1.48,1.05,2.32,.11,.84,.17,2.3,.17,4.39v3.48Zm-5.9-6.67c0-.95-.06-1.55-.18-1.81-.12-.26-.36-.4-.72-.4-.31,0-.54,.11-.71,.32-.16,.21-.25,.84-.25,1.89v9.49c0,1.18,.05,1.91,.16,2.18,.11,.28,.36,.41,.75,.41s.66-.16,.77-.48c.11-.32,.17-1.07,.17-2.27v-9.33Z"/><path class="cls-1" d="M69.85,140.55h4.17c2.78,0,4.67,.1,5.65,.29s1.79,.68,2.41,1.47c.62,.79,.93,2.05,.93,3.78,0,1.58-.22,2.64-.66,3.19-.44,.54-1.3,.87-2.59,.98,1.17,.26,1.95,.61,2.35,1.04,.4,.43,.65,.83,.75,1.2,.1,.36,.15,1.37,.15,3v5.36h-5.48v-6.75c0-1.09-.1-1.76-.29-2.02-.19-.26-.69-.39-1.51-.39v9.16h-5.9v-20.31Zm5.9,3.47v4.52c.66,0,1.13-.08,1.39-.25,.27-.16,.4-.69,.4-1.59v-1.12c0-.64-.13-1.07-.39-1.27-.26-.2-.73-.3-1.41-.3Z"/><path class="cls-1" d="M85.3,140.55h4.41c2.85,0,4.77,.12,5.78,.35,1,.23,1.77,.62,2.29,1.15,.52,.54,.85,1.13,.98,1.79,.13,.66,.2,1.95,.2,3.87v7.11c0,1.82-.1,3.04-.29,3.66-.19,.62-.53,1.1-1,1.44-.48,.35-1.06,.59-1.76,.73s-1.76,.21-3.17,.21h-7.44v-20.31Zm5.9,3.47v13.36c.85,0,1.37-.15,1.57-.46,.2-.3,.29-1.13,.29-2.49v-7.89c0-.92-.03-1.51-.1-1.77-.07-.26-.21-.45-.45-.57s-.67-.18-1.32-.18Z"/><path class="cls-1" d="M113.65,146.7h-5.48v-1.51c0-.7-.07-1.15-.21-1.34-.14-.19-.37-.29-.7-.29-.36,0-.62,.13-.81,.39-.18,.26-.27,.65-.27,1.18,0,.68,.1,1.19,.31,1.53,.2,.34,.75,.76,1.67,1.24,2.62,1.4,4.28,2.54,4.96,3.44,.68,.89,1.02,2.34,1.02,4.33,0,1.45-.19,2.51-.57,3.2-.38,.69-1.11,1.26-2.19,1.73-1.08,.46-2.34,.7-3.78,.7-1.58,0-2.93-.27-4.04-.8-1.12-.54-1.85-1.22-2.19-2.05-.35-.83-.52-2-.52-3.53v-1.33h5.48v2.47c0,.76,.08,1.25,.23,1.47,.15,.22,.43,.33,.82,.33s.68-.14,.88-.41c.19-.28,.29-.69,.29-1.23,0-1.2-.18-1.98-.55-2.35-.37-.37-1.29-.98-2.76-1.84-1.47-.87-2.44-1.5-2.91-1.89-.48-.39-.87-.94-1.18-1.63s-.47-1.58-.47-2.66c0-1.56,.22-2.69,.67-3.41s1.16-1.28,2.15-1.69c.99-.41,2.18-.61,3.59-.61,1.53,0,2.84,.22,3.92,.67,1.08,.44,1.79,1,2.14,1.67,.35,.67,.53,1.82,.53,3.43v.8Z"/></g></g><rect class="cls-1" x="60.14" y="-60.02" width="5" height="125.18" transform="translate(65.21 -60.07) rotate(90)"/><rect class="cls-1" x="60.14" y="107.65" width="5" height="125.18" transform="translate(232.87 107.6) rotate(90)"/></g></svg>