<svg xmlns="http://www.w3.org/2000/svg" xmlns:xlink="http://www.w3.org/1999/xlink" viewBox="0 0 66.83 48.13"><defs><linearGradient id="b" x1="290.41" y1="-1343.7" x2="339.88" y2="-1343.7" gradientTransform="rotate(-49 1676.799 -351.473)" gradientUnits="userSpaceOnUse"><stop offset="0" stop-color="#d88f28"/><stop offset=".04" stop-color="#e4b145"/><stop offset=".08" stop-color="#eecd5d"/><stop offset=".12" stop-color="#f5e16f"/><stop offset=".16" stop-color="#f9ed79"/><stop offset=".2" stop-color="#fbf17d"/><stop offset=".28" stop-color="#e5bc4b"/><stop offset=".34" stop-color="#d69728"/><stop offset=".36" stop-color="#c88c28"/><stop offset=".39" stop-color="#b47d29"/><stop offset=".43" stop-color="#a87429"/><stop offset=".47" stop-color="#a5722a"/><stop offset=".51" stop-color="#a9772d"/><stop offset=".56" stop-color="#b78638"/><stop offset=".61" stop-color="#cd9f4a"/><stop offset=".67" stop-color="#ebc162"/><stop offset=".68" stop-color="#f5cc6a"/><stop offset=".72" stop-color="#f1c663"/><stop offset=".78" stop-color="#e8b750"/><stop offset=".85" stop-color="#da9e31"/><stop offset=".87" stop-color="#d69728"/><stop offset="1" stop-color="#f5cc6a"/></linearGradient><linearGradient id="a" x1="296.88" y1="-1349.45" x2="339.88" y2="-1349.45" gradientTransform="rotate(-49 1676.799 -351.473)" gradientUnits="userSpaceOnUse"><stop offset="0" stop-color="#d88f28"/><stop offset=".04" stop-color="#e4b145"/><stop offset=".08" stop-color="#eecd5d"/><stop offset=".12" stop-color="#f5e16f"/><stop offset=".16" stop-color="#f9ed79"/><stop offset=".2" stop-color="#fbf17d"/><stop offset=".28" stop-color="#e5bc4b"/><stop offset=".34" stop-color="#d69728"/><stop offset=".36" stop-color="#c88c28"/><stop offset=".39" stop-color="#b47d29"/><stop offset=".43" stop-color="#a87429"/><stop offset=".47" stop-color="#a5722a"/><stop offset=".51" stop-color="#a9772d"/><stop offset=".56" stop-color="#b78638"/><stop offset=".61" stop-color="#cd9f4a"/><stop offset=".67" stop-color="#ebc162"/><stop offset=".68" stop-color="#f5cc6a"/><stop offset=".72" stop-color="#f1c663"/><stop offset=".78" stop-color="#e8b750"/><stop offset=".85" stop-color="#da9e31"/><stop offset=".87" stop-color="#d69728"/><stop offset="1" stop-color="#f5cc6a"/></linearGradient><linearGradient id="c" x1="311.85" y1="-1350.49" x2="331.18" y2="-1350.49" xlink:href="#a"/><linearGradient id="d" x1="2950.67" y1="-634.83" x2="3011.33" y2="-634.83" gradientTransform="matrix(-.97738 .2115 .21167 .97734 3081.96 19.22)" xlink:href="#a"/><linearGradient id="e" x1="2951" y1="-630.67" x2="3011.03" y2="-630.67" gradientTransform="matrix(-.97738 .2115 .21167 .97734 3081.96 19.22)" xlink:href="#a"/><linearGradient id="f" x1="2951.36" y1="-626.55" x2="3010.77" y2="-626.55" gradientTransform="matrix(-.97738 .2115 .21167 .97734 3081.96 19.22)" xlink:href="#a"/></defs><g style="isolation:isolate"><path style="fill:url(#b);fill-rule:evenodd" d="M1.84 21.02 4.9 32.26l4.09-.22 17.68 4.87 16.12 6.46L48 47.66l17.26-15.8-2.4-14.78-14.52-7.01-14.45-5.19-9.71-2.18-4.51.32-3.84 4.21L4 19.78l-2.16 1.24z"/><path style="fill:#1eb473;mix-blend-mode:multiply;fill-rule:evenodd" d="M1.84 21.02 4.9 32.26l4.09-.22 17.68 4.87 16.12 6.46L48 47.66l17.26-15.8-2.4-14.78-14.52-7.01-14.45-5.19-9.71-2.18-4.51.32-3.84 4.21L4 19.78l-2.16 1.24z"/><path d="M62.86 17.08C57.42 22.76 51.44 28.16 45.73 34A117.064 117.064 0 0 0 1.84 21.01C8.33 14.04 14.55 7.16 21 .54c14.91 2.65 29.12 8.31 41.86 16.54Zm-36.9-13c-1.68 1.28-4.11 2.54-6.75 2.87-.51.06-1.13-.03-1.43.08-.55.22-1.48 1.42-1.98 1.94-1.92 2.02-3.56 3.94-5.55 5.91.46.49 1.2.61 1.53 1.22.73 1.36-.2 2.72-.52 3.64 10.31 1.61 20.26 4.74 29.7 9.06 1.77-1.33 5.46-2.27 7.76-1.34 2.4-2.11 4.5-4.43 6.82-6.55-1.55-1.14-2.15-4.58-.74-5.71-9.04-5.06-18.79-8.74-28.85-11.13Z" style="fill:url(#a);fill-rule:evenodd"/><path d="M36.09 8.99c-3.85.53-7.13 2.58-9.15 4.69-1.52 1.58-3.69 4.49-2.43 6.89.69 1.32 2.24 2 3.56 2.22 5.27.82 11.95-3 13.98-6.73.62-1.13 1.17-3 .38-4.76-.89-1.97-3.18-2.74-6.34-2.31Zm1.02 5.31c-.98-.12-1.95-.25-2.9-.4.12-.3.39-.6.42-.83.04-.3-.75-.49-1.09-.2-.12.1-.28.45-.3.56-.02.09.02.21.08.31.23.42.88.69 1.4 1.04.49.33.98.69 1.14 1.19.09.3.08.68-.12 1.09-.36.72-.82 1.46-1.37 1.84-.82.55-1.68.55-2.75.33-.2.3-.33.61-.53.91-.44-.15-.87-.31-1.3-.47l.48-.87c-1.51-.65-2.35-1.55-1.14-3.4.86.26 1.73.51 2.62.75-.16.42-.59.86-.65 1.24-.05.29.64.64.99.28.14-.15.4-.63.46-.82.19-.62-.62-1.17-1.04-1.5-.51-.39-1.06-.83-1.22-1.36-.15-.45.06-1.2.61-1.65.77-.63 1.98-.64 3.2-.6.11-.2.21-.4.32-.6 0-.02.02-.03.03-.04.52.05 1.04.1 1.56.14-.12.23-.21.43-.35.65 1.37.3 2.55.7 1.45 2.42Z" style="fill:url(#c);fill-rule:evenodd"/><path d="M2.29 23.15c-.06.56.36 1.28.48 1.9 15.28 1.71 30.3 6.12 43.71 13.62 6.01-5.46 11.79-10.89 17.49-16.18-.11-.78-.23-1.56-.34-2.34-.28-.09-.71.37-1.06.7-5.25 4.91-10.91 10.2-16.46 15.31-13.57-7.14-28.46-11.61-43.83-13Z" style="fill:url(#d);fill-rule:evenodd"/><path d="M3.38 26.74c-.06.56.35 1.29.47 1.92 15.22 2.03 30.16 6.71 43.41 14.52 5.95-5.41 11.7-10.78 17.38-15.99l-.33-2.36c-.29-.13-.7.37-1.05.68-5.28 4.76-10.82 10.12-16.35 15.12-13.42-7.44-28.2-12.23-43.53-13.9Z" style="fill:url(#e);fill-rule:evenodd"/><path d="M4.43 30.31c.19.62.07 1.48.47 1.95.3.35 2 .35 2.88.51C21.85 35.13 36.05 40.33 48 47.66c5.94-5.33 11.65-10.63 17.27-15.79-.1-.8-.21-1.59-.32-2.38-.28-.1-.7.35-1.04.67-5.14 4.82-10.79 9.95-16.25 14.94-13.3-7.68-27.96-12.78-43.22-14.78Z" style="fill-rule:evenodd;fill:url(#f)"/></g></svg>