<svg xmlns="http://www.w3.org/2000/svg" viewBox="0 0 171.2 35.16"><path d="M77.8.06h12.37l10.9 18.36c-.13-.82-.23-1.72-.29-2.7-.07-.98-.1-2.27-.1-3.88V.06h12.17v35.1h-12.47l-10.8-18.21c.13.79.23 1.63.29 2.53s.1 1.91.1 3.02v12.66H77.8V.06Zm41.47 0h23.46v9.52h-10.84v4.08h9.81v8.98h-9.81v12.52h-12.62V.06zm32.3 11.49h-7.02V.06h26.65v11.49h-7.02v23.61h-12.61V11.55zM17.72 29.29c0-1.81.4-3.21 1.21-4.22.81-1.01 1.93-1.51 3.37-1.51s2.61.49 3.41 1.48 1.2 2.37 1.2 4.15c0 1.29-.17 2.35-.52 3.18-.35.83-.85 1.47-1.51 1.93-.66.46-1.48.69-2.46.69s-1.83-.2-2.48-.6c-.65-.4-1.19-1.03-1.59-1.89-.41-.86-.61-1.94-.61-3.23Zm2.74.02c0 1.12.17 1.92.5 2.41s.78.73 1.36.73 1.04-.24 1.37-.72c.32-.48.48-1.34.48-2.57 0-1.04-.17-1.8-.5-2.28-.34-.48-.79-.72-1.37-.72s-1 .24-1.33.73-.5 1.29-.5 2.42Zm7.69-5.56h2.56l3.34 6.12v-6.12h2.58v11.06h-2.58l-3.32-6.07v6.07h-2.57V23.75Zm10.04 0h7.34v2.36h-4.59v1.76h4.26v2.26h-4.26v2.18h4.73v2.5H38.2V23.75ZM9.51 20.79c-.69.91-1.38 1.84-2.07 2.78-1.86.85-3.68 1.79-5.46 2.83-.67-.24-1.33-.46-1.98-.67v-2.9c1.01-.64 2.04-1.26 3.09-1.83v1.46c1.05-.59 2.12-1.14 3.2-1.66v-4.01c-1.46.7-2.89 1.46-4.3 2.29-.67-.24-1.33-.47-1.98-.69V11.5c.65-1.05 1.31-2.08 1.98-3.1C3.77 7.36 5.6 6.42 7.45 5.57c.69.31 1.37.64 2.07.98v2.9c-1.09.45-2.16.93-3.23 1.44V9.43c-1.08.52-2.14 1.07-3.2 1.66v4.01c1.43-.79 2.88-1.53 4.36-2.2.69.32 1.37.65 2.07.99v6.9Zm1.58 1.25v-3.33c.31-.12.63-.24.94-.35V7c-.32.11-.63.23-.94.35V4.02c3.47-1.32 7.02-2.31 10.63-2.99v4.79c-1.14.21-2.28.46-3.4.73V5.09c-.99.24-1.97.51-2.95.8V9.9c1.53-.46 3.07-.85 4.63-1.19v3.34c-1.55.34-3.1.73-4.63 1.19v4.01c.98-.29 1.96-.56 2.95-.8v-1.46c1.13-.28 2.26-.52 3.4-.73v4.78c-3.6.67-7.16 1.67-10.63 2.99Zm24.42-3.97c-1.24-.05-2.48-.06-3.72-.04-.98-2.43-1.97-4.83-2.95-7.21-.34.02-.68.05-1.03.08v4.01c.33-.03.66-.05.99-.08v3.33c-1.82.12-3.63.33-5.43.61v-3.33c.33-.05.66-.1.98-.15V3.93c-.33.05-.66.1-.98.15V.75C26.45.26 29.55.01 32.66 0c.74.63 1.47 1.27 2.21 1.92v6.62c-.79.68-1.58 1.38-2.37 2.09.55 1.35 1.1 2.7 1.65 4.07.45 0 .9.02 1.35.04v3.33ZM27.82 7.56c1.2-.1 2.39-.17 3.59-.2V3.34c-1.2.03-2.4.1-3.59.2v4.02Zm9.36 10.6v-3.33c.33.02.66.05.99.08V3.54c-.33-.03-.66-.05-.99-.08V.14c1.82.12 3.63.33 5.43.61v3.33c-.33-.05-.66-.1-.98-.15V15.3c.33.05.66.1.98.15v3.33c-1.8-.28-3.62-.49-5.43-.61Zm7.09.89v-3.33c.33.06.65.12.98.19V4.55c-.33-.07-.65-.13-.98-.19V1.04c3.6.67 7.16 1.67 10.63 2.99v4.78c-1.1-.42-2.2-.8-3.31-1.15V6.2c-.98-.31-1.96-.59-2.94-.85v4.01c1.54.4 3.07.87 4.58 1.4v3.34c-1.51-.53-3.04-.99-4.58-1.4v4.01c.99.26 1.97.54 2.94.85V16.1c1.11.35 2.22.74 3.31 1.15v4.78a62.272 62.272 0 0 0-10.63-2.99Zm21.72 6.67c-.65.22-1.3.44-1.96.69a60.135 60.135 0 0 0-5.46-2.83c-.69-.94-1.39-1.87-2.09-2.79v-2.9c1.09.45 2.16.93 3.23 1.44v1.46c1.08.52 2.14 1.07 3.2 1.66v-4.01c-1.42-.79-2.87-1.52-4.33-2.19-.69-.95-1.39-1.88-2.09-2.8V6.54c.7-.34 1.4-.67 2.09-.98 1.86.85 3.68 1.79 5.46 2.83.66 1.01 1.31 2.04 1.96 3.07v2.9c-1.01-.64-2.04-1.26-3.09-1.84v-1.46c-1.05-.59-2.12-1.14-3.2-1.66v4.01c1.46.7 2.9 1.47 4.32 2.3.66 1.02 1.31 2.04 1.96 3.09v6.9Z" style="fill:#fff"/></svg>