<?xml version="1.0" encoding="UTF-8"?><svg xmlns="http://www.w3.org/2000/svg" xmlns:xlink="http://www.w3.org/1999/xlink" viewBox="0 0 66.83 48.13"><defs><style>.cls-1{fill:url(#New_Gradient_Swatch_3-5);}.cls-1,.cls-2,.cls-3,.cls-4,.cls-5,.cls-6,.cls-7{fill-rule:evenodd;}.cls-2{fill:url(#New_Gradient_Swatch_copy);}.cls-3{fill:url(#New_Gradient_Swatch_3);}.cls-8{isolation:isolate;}.cls-4{fill:url(#New_Gradient_Swatch_3-2);}.cls-5{fill:url(#New_Gradient_Swatch_3-4);}.cls-6{fill:#1eb473;mix-blend-mode:multiply;}.cls-7{fill:url(#New_Gradient_Swatch_3-3);}</style><linearGradient id="New_Gradient_Swatch_copy" x1="290.41" y1="-1343.7" x2="339.88" y2="-1343.7" gradientTransform="translate(841.98 1144.61) rotate(-49)" gradientUnits="userSpaceOnUse"><stop offset="0" stop-color="#d88f28"/><stop offset=".04" stop-color="#e4b145"/><stop offset=".08" stop-color="#eecd5d"/><stop offset=".12" stop-color="#f5e16f"/><stop offset=".16" stop-color="#f9ed79"/><stop offset=".2" stop-color="#fbf17d"/><stop offset=".28" stop-color="#e5bc4b"/><stop offset=".34" stop-color="#d69728"/><stop offset=".36" stop-color="#c88c28"/><stop offset=".39" stop-color="#b47d29"/><stop offset=".43" stop-color="#a87429"/><stop offset=".47" stop-color="#a5722a"/><stop offset=".51" stop-color="#a9772d"/><stop offset=".56" stop-color="#b78638"/><stop offset=".61" stop-color="#cd9f4a"/><stop offset=".67" stop-color="#ebc162"/><stop offset=".68" stop-color="#f5cc6a"/><stop offset=".72" stop-color="#f1c663"/><stop offset=".78" stop-color="#e8b750"/><stop offset=".85" stop-color="#da9e31"/><stop offset=".87" stop-color="#d69728"/><stop offset="1" stop-color="#f5cc6a"/></linearGradient><linearGradient id="New_Gradient_Swatch_3" x1="296.88" y1="-1349.45" x2="339.88" y2="-1349.45" gradientTransform="translate(841.98 1144.61) rotate(-49)" gradientUnits="userSpaceOnUse"><stop offset="0" stop-color="#d88f28"/><stop offset=".04" stop-color="#e4b145"/><stop offset=".08" stop-color="#eecd5d"/><stop offset=".12" stop-color="#f5e16f"/><stop offset=".16" stop-color="#f9ed79"/><stop offset=".2" stop-color="#fbf17d"/><stop offset=".28" stop-color="#e5bc4b"/><stop offset=".34" stop-color="#d69728"/><stop offset=".36" stop-color="#c88c28"/><stop offset=".39" stop-color="#b47d29"/><stop offset=".43" stop-color="#a87429"/><stop offset=".47" stop-color="#a5722a"/><stop offset=".51" stop-color="#a9772d"/><stop offset=".56" stop-color="#b78638"/><stop offset=".61" stop-color="#cd9f4a"/><stop offset=".67" stop-color="#ebc162"/><stop offset=".68" stop-color="#f5cc6a"/><stop offset=".72" stop-color="#f1c663"/><stop offset=".78" stop-color="#e8b750"/><stop offset=".85" stop-color="#da9e31"/><stop offset=".87" stop-color="#d69728"/><stop offset="1" stop-color="#f5cc6a"/></linearGradient><linearGradient id="New_Gradient_Swatch_3-2" x1="311.85" y1="-1350.49" x2="331.18" y2="-1350.49" xlink:href="#New_Gradient_Swatch_3"/><linearGradient id="New_Gradient_Swatch_3-3" x1="2950.67" y1="-634.83" x2="3011.33" y2="-634.83" gradientTransform="translate(3081.96 19.22) rotate(167.79) scale(1 -1) skewX(-.01)" xlink:href="#New_Gradient_Swatch_3"/><linearGradient id="New_Gradient_Swatch_3-4" x1="2951" y1="-630.67" x2="3011.03" y2="-630.67" gradientTransform="translate(3081.96 19.22) rotate(167.79) scale(1 -1) skewX(-.01)" xlink:href="#New_Gradient_Swatch_3"/><linearGradient id="New_Gradient_Swatch_3-5" x1="2951.36" y1="-626.55" x2="3010.77" y2="-626.55" gradientTransform="translate(3081.96 19.22) rotate(167.79) scale(1 -1) skewX(-.01)" xlink:href="#New_Gradient_Swatch_3"/></defs><g class="cls-8"><g id="Layer_6"><g><polygon class="cls-2" points="1.84 21.02 4.9 32.26 8.99 32.04 26.67 36.91 42.79 43.37 48 47.66 65.26 31.86 62.86 17.08 48.34 10.07 33.89 4.88 24.18 2.7 19.67 3.02 15.83 7.23 4 19.78 1.84 21.02"/><polygon class="cls-6" points="1.84 21.02 4.9 32.26 8.99 32.04 26.67 36.91 42.79 43.37 48 47.66 65.26 31.86 62.86 17.08 48.34 10.07 33.89 4.88 24.18 2.7 19.67 3.02 15.83 7.23 4 19.78 1.84 21.02"/><g><path class="cls-3" d="M62.86,17.08c-5.44,5.68-11.42,11.08-17.13,16.92-13.61-7.17-28.55-11.59-43.89-12.99C8.33,14.04,14.55,7.16,21,.54c14.91,2.65,29.12,8.31,41.86,16.54ZM25.96,4.08c-1.68,1.28-4.11,2.54-6.75,2.87-.51,.06-1.13-.03-1.43,.08-.55,.22-1.48,1.42-1.98,1.94-1.92,2.02-3.56,3.94-5.55,5.91,.46,.49,1.2,.61,1.53,1.22,.73,1.36-.2,2.72-.52,3.64,10.31,1.61,20.26,4.74,29.7,9.06,1.77-1.33,5.46-2.27,7.76-1.34,2.4-2.11,4.5-4.43,6.82-6.55-1.55-1.14-2.15-4.58-.74-5.71-9.04-5.06-18.79-8.74-28.85-11.13Z"/><path class="cls-4" d="M36.09,8.99c-3.85,.53-7.13,2.58-9.15,4.69-1.52,1.58-3.69,4.49-2.43,6.89,.69,1.32,2.24,2,3.56,2.22,5.27,.82,11.95-3,13.98-6.73,.62-1.13,1.17-3,.38-4.76-.89-1.97-3.18-2.74-6.34-2.31Zm1.02,5.31c-.98-.12-1.95-.25-2.9-.4,.12-.3,.39-.6,.42-.83,.04-.3-.75-.49-1.09-.2-.12,.1-.28,.45-.3,.56-.02,.09,.02,.21,.08,.31,.23,.42,.88,.69,1.4,1.04,.49,.33,.98,.69,1.14,1.19,.09,.3,.08,.68-.12,1.09-.36,.72-.82,1.46-1.37,1.84-.82,.55-1.68,.55-2.75,.33-.2,.3-.33,.61-.53,.91-.44-.15-.87-.31-1.3-.47,.16-.29,.32-.58,.48-.87-1.51-.65-2.35-1.55-1.14-3.4,.86,.26,1.73,.51,2.62,.75-.16,.42-.59,.86-.65,1.24-.05,.29,.64,.64,.99,.28,.14-.15,.4-.63,.46-.82,.19-.62-.62-1.17-1.04-1.5-.51-.39-1.06-.83-1.22-1.36-.15-.45,.06-1.2,.61-1.65,.77-.63,1.98-.64,3.2-.6,.11-.2,.21-.4,.32-.6,0-.02,.02-.03,.03-.04,.52,.05,1.04,.1,1.56,.14-.12,.23-.21,.43-.35,.65,1.37,.3,2.55,.7,1.45,2.42Z"/><path class="cls-7" d="M2.29,23.15c-.06,.56,.36,1.28,.48,1.9,15.28,1.71,30.3,6.12,43.71,13.62,6.01-5.46,11.79-10.89,17.49-16.18-.11-.78-.23-1.56-.34-2.34-.28-.09-.71,.37-1.06,.7-5.25,4.91-10.91,10.2-16.46,15.31-13.57-7.14-28.46-11.61-43.83-13Z"/><path class="cls-5" d="M3.38,26.74c-.06,.56,.35,1.29,.47,1.92,15.22,2.03,30.16,6.71,43.41,14.52,5.95-5.41,11.7-10.78,17.38-15.99-.11-.79-.22-1.58-.33-2.36-.29-.13-.7,.37-1.05,.68-5.28,4.76-10.82,10.12-16.35,15.12-13.42-7.44-28.2-12.23-43.53-13.9Z"/><path class="cls-1" d="M4.43,30.31c.19,.62,.07,1.48,.47,1.95,.3,.35,2,.35,2.88,.51,14.07,2.36,28.27,7.56,40.22,14.89,5.94-5.33,11.65-10.63,17.27-15.79-.1-.8-.21-1.59-.32-2.38-.28-.1-.7,.35-1.04,.67-5.14,4.82-10.79,9.95-16.25,14.94-13.3-7.68-27.96-12.78-43.22-14.78Z"/></g></g></g></g></svg>