<?xml version="1.0" encoding="UTF-8"?><svg xmlns="http://www.w3.org/2000/svg" xmlns:xlink="http://www.w3.org/1999/xlink" viewBox="0 0 157.19 70.97"><defs><style>.cls-1{fill:url(#New_Gradient_Swatch_copy-5);}.cls-2{fill:url(#linear-gradient-2);}.cls-3{isolation:isolate;}.cls-4{fill:url(#New_Gradient_Swatch_copy-2);}.cls-5{fill:url(#New_Gradient_Swatch_11);}.cls-6{fill:url(#New_Gradient_Swatch_copy);}.cls-7{fill:url(#New_Gradient_Swatch_copy-4);}.cls-8{fill:url(#linear-gradient-3);}.cls-9{fill:#1a1a1a;}.cls-10{fill:url(#linear-gradient);}.cls-11{fill:url(#New_Gradient_Swatch_copy-3);}.cls-12{fill:url(#linear-gradient-4);}.cls-13{mix-blend-mode:screen;opacity:.34;}</style><linearGradient id="New_Gradient_Swatch_11" x1="0" y1="35.48" x2="157.19" y2="35.48" gradientTransform="matrix(1, 0, 0, 1, 0, 0)" gradientUnits="userSpaceOnUse"><stop offset="0" stop-color="#e4e1de"/><stop offset="0" stop-color="#d5d5d5"/><stop offset="0" stop-color="#cfd1d2"/><stop offset=".07" stop-color="#eaebec"/><stop offset=".11" stop-color="#fff"/><stop offset=".13" stop-color="#f5f5f5"/><stop offset=".17" stop-color="#dbdcdc"/><stop offset=".22" stop-color="#b0b2b4"/><stop offset=".25" stop-color="#95989a"/><stop offset=".27" stop-color="#979a9c"/><stop offset=".29" stop-color="#9fa2a4"/><stop offset=".3" stop-color="#aeb0b2"/><stop offset=".31" stop-color="#c2c4c5"/><stop offset=".31" stop-color="#cfd1d2"/><stop offset=".36" stop-color="#c5c7c8"/><stop offset=".45" stop-color="#abadae"/><stop offset=".55" stop-color="#818284"/><stop offset=".65" stop-color="#58595b"/><stop offset=".68" stop-color="#616264"/><stop offset=".73" stop-color="#7b7b7e"/><stop offset=".74" stop-color="#808083"/><stop offset=".76" stop-color="#a1a1a4"/><stop offset=".78" stop-color="#c3c3c4"/><stop offset=".81" stop-color="#ddddde"/><stop offset=".83" stop-color="#f0f0f0"/><stop offset=".86" stop-color="#fbfbfb"/><stop offset=".88" stop-color="#fff"/><stop offset=".9" stop-color="#e8e9e9"/><stop offset=".92" stop-color="#cecfd1"/><stop offset=".95" stop-color="#bbbdbf"/><stop offset=".97" stop-color="#b0b2b5"/><stop offset="1" stop-color="#adafb2"/></linearGradient><linearGradient id="New_Gradient_Swatch_copy" x1="2" y1="35.48" x2="155.19" y2="35.48" gradientTransform="matrix(1, 0, 0, 1, 0, 0)" gradientUnits="userSpaceOnUse"><stop offset="0" stop-color="#da9025"/><stop offset="0" stop-color="#da9226"/><stop offset=".04" stop-color="#e7b643"/><stop offset=".08" stop-color="#f1d25a"/><stop offset=".12" stop-color="#f9e66b"/><stop offset=".16" stop-color="#fdf274"/><stop offset=".2" stop-color="#fff678"/><stop offset=".28" stop-color="#e9c14a"/><stop offset=".34" stop-color="#d89926"/><stop offset=".36" stop-color="#c98d23"/><stop offset=".4" stop-color="#b57d20"/><stop offset=".43" stop-color="#a9741e"/><stop offset=".47" stop-color="#a6711e"/><stop offset=".51" stop-color="#aa7622"/><stop offset=".56" stop-color="#b7852e"/><stop offset=".61" stop-color="#cc9e42"/><stop offset=".66" stop-color="#eac05e"/><stop offset=".68" stop-color="#f5cd69"/><stop offset=".72" stop-color="#f2c762"/><stop offset=".78" stop-color="#e9b94f"/><stop offset=".85" stop-color="#dca130"/><stop offset=".87" stop-color="#d89926"/><stop offset="1" stop-color="#f5cd69"/></linearGradient><linearGradient id="New_Gradient_Swatch_copy-2" x1="5.28" y1="55.9" x2="46.09" y2="15.09" xlink:href="#New_Gradient_Swatch_copy"/><linearGradient id="New_Gradient_Swatch_copy-3" x1="48.05" y1="55.58" x2="88.26" y2="15.38" xlink:href="#New_Gradient_Swatch_copy"/><linearGradient id="New_Gradient_Swatch_copy-4" x1="81.16" y1="54.73" x2="119.67" y2="16.23" xlink:href="#New_Gradient_Swatch_copy"/><linearGradient id="New_Gradient_Swatch_copy-5" x1="108.33" y1="59.63" x2="156.63" y2="11.33" xlink:href="#New_Gradient_Swatch_copy"/><linearGradient id="linear-gradient" x1="25.74" y1="64" x2="25.74" y2="6.96" gradientTransform="matrix(1, 0, 0, 1, 0, 0)" gradientUnits="userSpaceOnUse"><stop offset=".04" stop-color="#fff"/><stop offset=".1" stop-color="#f5f5f5"/><stop offset=".19" stop-color="#dbdbdb"/><stop offset=".3" stop-color="#b1b1b1"/><stop offset=".44" stop-color="#777"/><stop offset=".59" stop-color="#2d2d2d"/><stop offset=".62" stop-color="#1a1a1a"/><stop offset=".96" stop-color="#000"/></linearGradient><linearGradient id="linear-gradient-2" x1="68.16" x2="68.16" xlink:href="#linear-gradient"/><linearGradient id="linear-gradient-3" x1="100.41" y1="62.85" x2="100.41" y2="8.11" xlink:href="#linear-gradient"/><linearGradient id="linear-gradient-4" x1="132.48" y1="62.85" x2="132.48" y2="8.11" xlink:href="#linear-gradient"/></defs><g class="cls-3"><g id="Layer_2"><g><path class="cls-5" d="M68.16,70.97c-4.09,0-7.87-.63-11.23-1.87-3.76-1.38-6.87-3.53-9.24-6.4-.2-.24-.39-.48-.57-.73-1.61,2.05-3.74,3.86-6.35,5.38-4.12,2.4-9.1,3.62-14.81,3.62s-10.64-1.01-14.62-3c-4.64-2.32-7.81-5.72-9.43-10.1-1.28-3.49-1.9-8.22-1.9-14.47v-15.99c0-4.35,.17-7.6,.53-9.93,.49-3.2,1.9-6.25,4.2-9.05,2.24-2.73,5.28-4.88,9.04-6.37,3.46-1.36,7.4-2.05,11.72-2.05,5.82,0,10.82,1.09,14.86,3.25,2.84,1.51,5.13,3.39,6.84,5.62,.09-.13,.19-.25,.29-.38,2.3-2.85,5.35-5.03,9.07-6.49C59.9,.69,63.89,0,68.11,0s7.97,.64,11.26,1.86c2.29,.84,4.34,1.97,6.13,3.37V1.15h71.69V69.81H85.5v-4.11c-1.72,1.37-3.63,2.44-5.75,3.27-3.39,1.33-7.3,2-11.6,2Z"/><path class="cls-6" d="M131.97,3.15v1.28l-.46-1.28h-44.01v6.99c-.15-.19-.27-.39-.42-.58h0c-2.15-2.6-4.98-4.55-8.39-5.8-6.39-2.36-15.18-2.31-21.4,.11-3.39,1.33-6.16,3.31-8.24,5.88-.74,.92-1.33,1.89-1.86,2.89-1.5-3.07-4.07-5.65-7.77-7.61-3.75-2-8.44-3.01-13.92-3.01-4.06,0-7.76,.64-10.98,1.92-3.44,1.37-6.21,3.31-8.24,5.78-2.06,2.52-3.33,5.24-3.77,8.09-.34,2.23-.51,5.38-.51,9.63v15.99c0,6.01,.58,10.52,1.77,13.77,1.43,3.88,4.27,6.91,8.45,9,3.71,1.85,8.33,2.79,13.73,2.79s9.99-1.12,13.81-3.35c3.5-2.04,5.93-4.53,7.38-7.39,.58,1.1,1.25,2.18,2.09,3.19,2.13,2.59,4.96,4.54,8.39,5.8,3.14,1.16,6.68,1.75,10.53,1.75,4.05,0,7.71-.63,10.87-1.86,3.39-1.33,6.16-3.31,8.24-5.88,.09-.11,.16-.23,.24-.35v6.94h67.68V3.15h-23.21Z"/><g><path class="cls-4" d="M25.95,65.6c-4.87,0-8.99-.82-12.23-2.44-3.38-1.69-5.66-4.09-6.79-7.15-1.06-2.87-1.57-6.99-1.57-12.6v-15.99c0-4.07,.15-7.05,.47-9.12,.34-2.25,1.37-4.42,3.04-6.46,1.66-2.03,3.97-3.64,6.87-4.78,2.83-1.12,6.11-1.68,9.74-1.68,4.93,0,9.08,.89,12.34,2.62,3.37,1.79,5.64,4.11,6.73,6.88,1.04,2.63,1.55,6.52,1.55,11.88v6.8H27.04v-11.11c0-3.63-.31-4.4-.35-4.48-.04-.03-.27-.14-.82-.14-.21,0-.92,.02-1.02,.28-.09,.22-.4,1.24-.4,4.79v25.43c0,3.39,.3,4.36,.4,4.57,.1,.22,.61,.25,.92,.25,.74,0,.83-.2,.87-.28,.1-.21,.41-1.21,.41-5.07v-8.47h19.08v3.73c0,5.91-.47,10.04-1.44,12.62-1.02,2.71-3.24,5.08-6.61,7.04-3.29,1.92-7.36,2.9-12.11,2.9Z"/><path class="cls-11" d="M68.16,65.6c-3.44,0-6.59-.52-9.36-1.54-2.86-1.05-5.21-2.66-6.96-4.79-1.77-2.14-2.84-4.51-3.18-7.06-.31-2.34-.47-6.28-.47-12.05v-9.36c0-5.62,.14-9.5,.44-11.88,.33-2.58,1.36-4.96,3.06-7.07,1.69-2.11,3.99-3.74,6.83-4.85,2.76-1.08,6-1.63,9.64-1.63,3.45,0,6.6,.52,9.36,1.53,2.86,1.05,5.2,2.66,6.96,4.8,1.77,2.13,2.84,4.51,3.18,7.05,.31,2.34,.47,6.29,.47,12.05v9.36c0,5.63-.15,9.52-.45,11.88-.32,2.57-1.35,4.95-3.05,7.07-1.69,2.11-3.99,3.74-6.83,4.85-2.77,1.08-6.01,1.63-9.64,1.63Zm.07-47.78c-.46,0-.57,.15-.64,.24,0,.02-.34,.75-.34,4.12v25.56c0,4.25,.27,5.16,.32,5.3,.3,.03,.52,.04,.67,.04,.38,0,.41-.08,.44-.16,.11-.31,.36-1.47,.36-5.59V22.17c0-3.32-.28-4.11-.34-4.24l-.49-.12Z"/><rect class="cls-7" x="90.88" y="6.51" width="19.08" height="57.93"/><polygon class="cls-1" points="135.15 64.45 129.62 47.81 129.62 64.45 113.15 64.45 113.15 6.51 129.15 6.51 135.34 23.66 135.34 6.51 151.82 6.51 151.82 64.45 135.15 64.45"/><path class="cls-9" d="M44.52,31.95h-15.89v-9.51c0-2.77-.17-4.5-.51-5.18-.34-.69-1.09-1.03-2.25-1.03-1.31,0-2.14,.42-2.49,1.25-.35,.84-.53,2.64-.53,5.41v25.43c0,2.66,.18,4.39,.53,5.21,.35,.81,1.14,1.22,2.38,1.22s1.95-.41,2.32-1.22,.55-2.72,.55-5.73v-6.88h15.89v2.13c0,5.67-.45,9.68-1.34,12.05-.89,2.38-2.87,4.45-5.93,6.24-3.06,1.78-6.83,2.67-11.31,2.67s-8.49-.76-11.51-2.27c-3.02-1.51-5.02-3.61-6-6.27-.98-2.67-1.47-6.69-1.47-12.06v-15.99c0-3.94,.15-6.9,.45-8.87,.3-1.97,1.2-3.87,2.7-5.7,1.5-1.83,3.57-3.26,6.23-4.31,2.66-1.05,5.71-1.57,9.15-1.57,4.68,0,8.55,.81,11.59,2.43,3.04,1.62,5.05,3.64,6,6.06,.96,2.42,1.43,6.19,1.43,11.3v5.2Z"/><path class="cls-9" d="M86.54,40.16c0,5.5-.14,9.4-.43,11.69-.29,2.29-1.19,4.38-2.72,6.27-1.52,1.89-3.58,3.35-6.17,4.36-2.59,1.01-5.61,1.52-9.06,1.52s-6.21-.48-8.81-1.44c-2.61-.96-4.7-2.39-6.29-4.31-1.59-1.92-2.53-4-2.83-6.26s-.45-6.2-.45-11.83v-9.36c0-5.5,.14-9.39,.43-11.68,.29-2.29,1.2-4.38,2.72-6.27,1.52-1.89,3.58-3.35,6.17-4.36s5.61-1.52,9.06-1.52c3.27,0,6.21,.48,8.81,1.43,2.61,.96,4.7,2.4,6.29,4.31,1.59,1.92,2.53,4,2.83,6.25,.3,2.25,.45,6.2,.45,11.83v9.36Zm-15.89-17.99c0-2.55-.16-4.18-.47-4.88-.32-.71-.96-1.07-1.94-1.07-.83,0-1.46,.29-1.91,.86-.44,.58-.66,2.27-.66,5.09v25.56c0,3.18,.14,5.14,.43,5.88,.29,.75,.96,1.12,2.02,1.12s1.77-.43,2.08-1.28c.3-.86,.45-2.9,.45-6.12V22.17Z"/><path class="cls-9" d="M108.36,8.11V62.85h-15.89V8.11h15.89Z"/><path class="cls-9" d="M150.22,8.11V62.85h-13.93l-8.27-24.89v24.89h-13.29V8.11h13.29l8.91,24.65V8.11h13.29Z"/></g><g class="cls-13"><path class="cls-10" d="M44.52,31.95h-15.89v-9.51c0-2.77-.17-4.5-.51-5.18-.34-.69-1.09-1.03-2.25-1.03-1.31,0-2.14,.42-2.49,1.25-.35,.84-.53,2.64-.53,5.41v25.43c0,2.66,.18,4.39,.53,5.21,.35,.81,1.14,1.22,2.38,1.22s1.95-.41,2.32-1.22,.55-2.72,.55-5.73v-6.88h15.89v2.13c0,5.67-.45,9.68-1.34,12.05-.89,2.38-2.87,4.45-5.93,6.24-3.06,1.78-6.83,2.67-11.31,2.67s-8.49-.76-11.51-2.27c-3.02-1.51-5.02-3.61-6-6.27-.98-2.67-1.47-6.69-1.47-12.06v-15.99c0-3.94,.15-6.9,.45-8.87,.3-1.97,1.2-3.87,2.7-5.7,1.5-1.83,3.57-3.26,6.23-4.31,2.66-1.05,5.71-1.57,9.15-1.57,4.68,0,8.55,.81,11.59,2.43,3.04,1.62,5.05,3.64,6,6.06,.96,2.42,1.43,6.19,1.43,11.3v5.2Z"/><path class="cls-2" d="M86.54,40.16c0,5.5-.14,9.4-.43,11.69-.29,2.29-1.19,4.38-2.72,6.27-1.52,1.89-3.58,3.35-6.17,4.36-2.59,1.01-5.61,1.52-9.06,1.52s-6.21-.48-8.81-1.44c-2.61-.96-4.7-2.39-6.29-4.31-1.59-1.92-2.53-4-2.83-6.26s-.45-6.2-.45-11.83v-9.36c0-5.5,.14-9.39,.43-11.68,.29-2.29,1.2-4.38,2.72-6.27,1.52-1.89,3.58-3.35,6.17-4.36s5.61-1.52,9.06-1.52c3.27,0,6.21,.48,8.81,1.43,2.61,.96,4.7,2.4,6.29,4.31,1.59,1.92,2.53,4,2.83,6.25,.3,2.25,.45,6.2,.45,11.83v9.36Zm-15.89-17.99c0-2.55-.16-4.18-.47-4.88-.32-.71-.96-1.07-1.94-1.07-.83,0-1.46,.29-1.91,.86-.44,.58-.66,2.27-.66,5.09v25.56c0,3.18,.14,5.14,.43,5.88,.29,.75,.96,1.12,2.02,1.12s1.77-.43,2.08-1.28c.3-.86,.45-2.9,.45-6.12V22.17Z"/><path class="cls-8" d="M108.36,8.11V62.85h-15.89V8.11h15.89Z"/><path class="cls-12" d="M150.22,8.11V62.85h-13.93l-8.27-24.89v24.89h-13.29V8.11h13.29l8.91,24.65V8.11h13.29Z"/></g><g><path d="M44.52,31.95h-15.89v-9.51c0-2.77-.17-4.5-.51-5.18-.34-.69-1.09-1.03-2.25-1.03-1.31,0-2.14,.42-2.49,1.25-.35,.84-.53,2.64-.53,5.41v25.43c0,2.66,.18,4.39,.53,5.21,.35,.81,1.14,1.22,2.38,1.22s1.95-.41,2.32-1.22,.55-2.72,.55-5.73v-6.88h15.89v2.13c0,5.67-.45,9.68-1.34,12.05-.89,2.38-2.87,4.45-5.93,6.24-3.06,1.78-6.83,2.67-11.31,2.67s-8.49-.76-11.51-2.27c-3.02-1.51-5.02-3.61-6-6.27-.98-2.67-1.47-6.69-1.47-12.06v-15.99c0-3.94,.15-6.9,.45-8.87,.3-1.97,1.2-3.87,2.7-5.7,1.5-1.83,3.57-3.26,6.23-4.31,2.66-1.05,5.71-1.57,9.15-1.57,4.68,0,8.55,.81,11.59,2.43,3.04,1.62,5.05,3.64,6,6.06,.96,2.42,1.43,6.19,1.43,11.3v5.2Z"/><path d="M86.54,40.16c0,5.5-.14,9.4-.43,11.69-.29,2.29-1.19,4.38-2.72,6.27-1.52,1.89-3.58,3.35-6.17,4.36-2.59,1.01-5.61,1.52-9.06,1.52s-6.21-.48-8.81-1.44c-2.61-.96-4.7-2.39-6.29-4.31-1.59-1.92-2.53-4-2.83-6.26s-.45-6.2-.45-11.83v-9.36c0-5.5,.14-9.39,.43-11.68,.29-2.29,1.2-4.38,2.72-6.27,1.52-1.89,3.58-3.35,6.17-4.36s5.61-1.52,9.06-1.52c3.27,0,6.21,.48,8.81,1.43,2.61,.96,4.7,2.4,6.29,4.31,1.59,1.92,2.53,4,2.83,6.25,.3,2.25,.45,6.2,.45,11.83v9.36Zm-15.89-17.99c0-2.55-.16-4.18-.47-4.88-.32-.71-.96-1.07-1.94-1.07-.83,0-1.46,.29-1.91,.86-.44,.58-.66,2.27-.66,5.09v25.56c0,3.18,.14,5.14,.43,5.88,.29,.75,.96,1.12,2.02,1.12s1.77-.43,2.08-1.28c.3-.86,.45-2.9,.45-6.12V22.17Z"/><path d="M108.36,8.11V62.85h-15.89V8.11h15.89Z"/><path d="M150.22,8.11V62.85h-13.93l-8.27-24.89v24.89h-13.29V8.11h13.29l8.91,24.65V8.11h13.29Z"/></g></g></g></g></svg>