<?xml version="1.0" encoding="UTF-8"?><svg xmlns="http://www.w3.org/2000/svg" xmlns:xlink="http://www.w3.org/1999/xlink" viewBox="0 0 74.67 92.82"><defs><style>.cls-1{fill:url(#New_Gradient_Swatch_3);}.cls-1,.cls-2,.cls-3,.cls-4,.cls-5{fill-rule:evenodd;}.cls-6{isolation:isolate;}.cls-2{fill:url(#New_Gradient_Swatch_3-2);}.cls-7{clip-path:url(#clippath-1);}.cls-8{opacity:.35;}.cls-8,.cls-4,.cls-9{mix-blend-mode:multiply;}.cls-3{fill:url(#New_Gradient_Swatch_3-4);}.cls-4,.cls-10{fill:#1eb473;}.cls-11{clip-rule:evenodd;fill:none;}.cls-12{fill:#d0b783;}.cls-5{fill:url(#New_Gradient_Swatch_3-3);}</style><linearGradient id="New_Gradient_Swatch_3" x1=".23" y1="46.32" x2="73.09" y2="46.32" gradientTransform="matrix(1, 0, 0, 1, 0, 0)" gradientUnits="userSpaceOnUse"><stop offset="0" stop-color="#d88f28"/><stop offset=".04" stop-color="#e4b145"/><stop offset=".08" stop-color="#eecd5d"/><stop offset=".12" stop-color="#f5e16f"/><stop offset=".16" stop-color="#f9ed79"/><stop offset=".2" stop-color="#fbf17d"/><stop offset=".28" stop-color="#e5bc4b"/><stop offset=".34" stop-color="#d69728"/><stop offset=".36" stop-color="#c88c28"/><stop offset=".39" stop-color="#b47d29"/><stop offset=".43" stop-color="#a87429"/><stop offset=".47" stop-color="#a5722a"/><stop offset=".51" stop-color="#a9772d"/><stop offset=".56" stop-color="#b78638"/><stop offset=".61" stop-color="#cd9f4a"/><stop offset=".67" stop-color="#ebc162"/><stop offset=".68" stop-color="#f5cc6a"/><stop offset=".72" stop-color="#f1c663"/><stop offset=".78" stop-color="#e8b750"/><stop offset=".85" stop-color="#da9e31"/><stop offset=".87" stop-color="#d69728"/><stop offset="1" stop-color="#f5cc6a"/></linearGradient><linearGradient id="New_Gradient_Swatch_3-2" x1="7.63" y1="75.04" x2="65.65" y2="17.01" xlink:href="#New_Gradient_Swatch_3"/><linearGradient id="New_Gradient_Swatch_3-3" x1="7.63" y1="75.04" x2="65.65" y2="17.01" xlink:href="#New_Gradient_Swatch_3"/><linearGradient id="New_Gradient_Swatch_3-4" x1="10.11" y1="19.5" x2="63.17" y2="72.56" xlink:href="#New_Gradient_Swatch_3"/><clipPath id="clippath-1"><path class="cls-11" d="M70.59,56.69c-.29-3.79-2.37-6.66-4.06-8.4-3.77-3.88-10.09-6.43-16.24-8.7-1.76-.65-3.61-1.25-5.41-1.83-5.36-1.74-10.42-3.38-13.96-6.42-.69-.59-2.36-2.17-2.97-4.02-.51-1.56-.82-6,.11-7.97,1.07-2.28,3.77-3.65,7.21-3.65s7.19,1.31,8.3,4.24c.7,1.86,.57,3.91,.44,5.89-.03,.53-.07,1.07-.09,1.6h24.92c.12-12.39-8.16-15.83-24.03-17.92l-2.18-.29,.19-2.2c.14-1.62,.11-3.16,.06-4.76h-10.84v7.17l-2.06,.22c-11.12,1.21-21.93,3.36-25.69,10.85-2.71,5.4-1.17,12.92,1.96,16.55,3.87,4.48,10.66,7.24,17.86,9.89,.52,.19,1.09,.4,1.69,.61,6.42,2.3,16.12,5.77,17.72,12.57,.46,1.96,.75,7.4-.07,9.72-.91,2.55-3.58,4.07-7.15,4.07-3.23,0-7.2-1.25-8.28-4.01-.97-2.46-.72-5.25-.48-7.96,.1-1.19,.21-2.4,.21-3.55H2.62c-.43,6.83,.86,11.92,3.94,15.51,4.06,4.73,11.23,7.1,23.26,7.66l2.2,.1v8.73h10.88c0-.7-.02-1.4-.04-2.13-.04-1.53-.08-3.12,.08-4.77l.2-1.92,1.92-.15c10.65-.82,18.64-2.52,23-8.22,2.29-2.99,3.14-8.55,2.52-16.52ZM42.44,12.58h.02l.85,.11c.35,.06,.69,.12,1.05,.14,13.74,1.81,19.36,4.63,20.72,10.39l.2,.84h-17.83v-.68c-.01-1.81-.25-3.28-.76-4.63-.79-2.1-2.35-3.74-4.63-4.88h0l-.02-.02-2.23-1.38,2.62,.11Zm-7.06-6.97h4.16l-.05,.73c0,.13-.54,6.4-.54,6.4l-.74-.14c-.72-.13-1.46-.22-2.18-.25l-.65-.03V5.61Zm-2.15,72.76l-3.25-.15c-10.88-.52-17.52-2.58-20.87-6.49-1.92-2.24-2.96-5.27-3.17-9.25l-.04-.72H24.16l-.06,.74c-.23,2.78-.37,5.74,.77,8.64,1.68,4.27,6.51,5.53,8.51,5.88l-.15,1.36Zm32.17-7.2c-3.6,4.71-10.83,6.17-20.59,6.91l-4.72,.36-.48,4.71c-.1,.98-.14,2-.14,3.2v.69h-4.09v-9.79l.89,.02c4.98,0,8.93-2.42,10.32-6.3,1.09-3.07,.74-9.27,.18-11.62-2.01-8.56-12.74-12.41-19.84-14.95-.6-.22-1.16-.41-1.67-.6-6.77-2.5-13.13-5.06-16.48-8.93-2.37-2.75-3.52-8.83-1.5-12.85,2.88-5.74,12.2-7.64,19.99-8.66l2.6-.34-2.1,1.56c-1.21,.9-2.13,2.02-2.75,3.34-1.42,3.03-.92,8.41-.26,10.45,.85,2.57,2.85,4.56,3.97,5.53,4.05,3.48,9.42,5.22,15.1,7.06,1.78,.58,3.62,1.17,5.29,1.79,5.79,2.14,11.72,4.52,15,7.89,1.3,1.34,2.9,3.53,3.12,6.32,.68,8.87-.62,12.63-1.84,14.22Z"/></clipPath></defs><g class="cls-6"><g id="Layer_7"><g><g><path class="cls-1" d="M29.86-.06h15.25c.05,2.55,.21,4.77,0,7.27,14.27,1.88,27.3,5,25.93,22.51h-29.35c-.38-3.14,.63-6.55-.29-8.98-1.19-3.14-9.58-3.99-11.26-.43-.59,1.26-.39,5.07,0,6.27,.33,.99,1.27,2.13,2.28,2.99,4.35,3.73,11.92,5.34,18.67,7.84,6.35,2.35,12.95,4.99,17.1,9.26,2.5,2.57,4.4,5.91,4.7,9.83,.52,6.79,.21,13.91-2.99,18.1-4.81,6.28-13.11,8.23-24.65,9.12-.31,3.01,.16,5.93-.14,8.98h-15.39v-8.83c-18.34-.86-31.55-6-29.21-27.79H29.86c.73,4.31-1.1,9.44,.28,12.97,1.06,2.69,9.68,4.03,11.11,0,.58-1.64,.44-6.54,0-8.41-1.45-6.13-12.11-9.39-17.95-11.54-6.91-2.54-14.46-5.51-18.81-10.54C.79,34.27-.92,25.7,2.21,19.46,6.5,10.92,17.92,8.63,29.71,7.35V.37c-.01-.2-.02-.4,.14-.43Z"/><path class="cls-2" d="M42.9,90.4h-10.88v-8.73l-2.2-.1c-12.03-.57-19.21-2.93-23.26-7.66-3.08-3.59-4.37-8.68-3.94-15.51H27.73c0,1.14-.11,2.36-.21,3.55-.24,2.7-.49,5.5,.48,7.96,1.08,2.75,5.05,4.01,8.28,4.01,3.57,0,6.24-1.52,7.15-4.07,.82-2.31,.54-7.76,.07-9.72-1.6-6.79-11.3-10.27-17.72-12.57-.59-.21-1.16-.41-1.69-.61-7.2-2.65-13.99-5.4-17.86-9.89-3.14-3.63-4.67-11.15-1.96-16.55,3.76-7.49,14.57-9.64,25.69-10.85l2.06-.22V2.25h10.84c.05,1.61,.08,3.15-.06,4.76l-.19,2.2,2.18,.29c15.87,2.09,24.15,5.53,24.03,17.92h-24.92c.02-.53,.05-1.07,.09-1.6,.13-1.98,.26-4.03-.44-5.89-1.11-2.93-4.97-4.24-8.3-4.24s-6.13,1.36-7.21,3.65c-.93,1.97-.62,6.41-.11,7.97,.61,1.85,2.28,3.43,2.97,4.02,3.54,3.04,8.6,4.68,13.96,6.42,1.8,.58,3.66,1.18,5.41,1.83,6.15,2.28,12.47,4.82,16.24,8.7,1.69,1.74,3.76,4.61,4.06,8.4,.62,7.97-.23,13.52-2.52,16.52-4.36,5.69-12.35,7.4-23,8.22l-1.92,.15-.2,1.92c-.17,1.65-.13,3.24-.08,4.77,.02,.73,.04,1.43,.04,2.13h0Z"/></g><path class="cls-5" d="M42.9,90.4h-10.88v-8.73l-2.2-.1c-12.03-.57-19.21-2.93-23.26-7.66-3.08-3.59-4.37-8.68-3.94-15.51H27.73c0,1.14-.11,2.36-.21,3.55-.24,2.7-.49,5.5,.48,7.96,1.08,2.75,5.05,4.01,8.28,4.01,3.57,0,6.24-1.52,7.15-4.07,.82-2.31,.54-7.76,.07-9.72-1.6-6.79-11.3-10.27-17.72-12.57-.59-.21-1.16-.41-1.69-.61-7.2-2.65-13.99-5.4-17.86-9.89-3.14-3.63-4.67-11.15-1.96-16.55,3.76-7.49,14.57-9.64,25.69-10.85l2.06-.22V2.25h10.84c.05,1.61,.08,3.15-.06,4.76l-.19,2.2,2.18,.29c15.87,2.09,24.15,5.53,24.03,17.92h-24.92c.02-.53,.05-1.07,.09-1.6,.13-1.98,.26-4.03-.44-5.89-1.11-2.93-4.97-4.24-8.3-4.24s-6.13,1.36-7.21,3.65c-.93,1.97-.62,6.41-.11,7.97,.61,1.85,2.28,3.43,2.97,4.02,3.54,3.04,8.6,4.68,13.96,6.42,1.8,.58,3.66,1.18,5.41,1.83,6.15,2.28,12.47,4.82,16.24,8.7,1.69,1.74,3.76,4.61,4.06,8.4,.62,7.97-.23,13.52-2.52,16.52-4.36,5.69-12.35,7.4-23,8.22l-1.92,.15-.2,1.92c-.17,1.65-.13,3.24-.08,4.77,.02,.73,.04,1.43,.04,2.13h0Z"/><g class="cls-9"><path class="cls-10" d="M24.87,71.13c-1.14-2.89-1.01-5.85-.77-8.64l.06-.74H5.9l.04,.72c.22,3.98,1.25,7.01,3.17,9.25,3.36,3.92,9.99,5.98,20.87,6.49l3.25,.15,.15-1.36c-2-.35-6.83-1.61-8.51-5.88Z"/><path class="cls-10" d="M67.24,56.95c-.22-2.79-1.81-4.98-3.12-6.32-3.28-3.38-9.21-5.75-15-7.89-1.67-.62-3.51-1.21-5.29-1.79-5.68-1.84-11.05-3.58-15.1-7.06-1.12-.96-3.12-2.96-3.97-5.53-.67-2.04-1.16-7.42,.26-10.45,.62-1.32,1.55-2.44,2.75-3.34l2.1-1.56-2.6,.34c-7.8,1.01-17.11,2.91-19.99,8.66-2.02,4.02-.87,10.1,1.5,12.85,3.35,3.87,9.7,6.44,16.48,8.93,.51,.19,1.07,.39,1.67,.6,7.1,2.54,17.83,6.39,19.84,14.95,.56,2.35,.92,8.55-.18,11.62-1.39,3.89-5.34,6.3-10.32,6.3l-.89-.02v9.79h4.09v-.69c0-1.2,.04-2.22,.14-3.2l.48-4.71,4.72-.36c9.75-.75,16.98-2.21,20.59-6.91,1.22-1.59,2.53-5.35,1.84-14.22Z"/><path class="cls-10" d="M38.21,12.6l.74,.14s.53-6.27,.54-6.4l.05-.73h-4.16v6.71l.65,.03c.72,.04,1.45,.12,2.18,.25Z"/><path class="cls-10" d="M42.07,13.85h0c2.28,1.15,3.83,2.79,4.63,4.89,.51,1.35,.75,2.82,.76,4.63v.68h17.83l-.2-.84c-1.37-5.76-6.98-8.58-20.72-10.39-.36-.02-.7-.08-1.05-.14l-.85-.11h-.02l-2.62-.11,2.23,1.38h.02Z"/></g><path class="cls-3" d="M36.06,86.35v-8.41c.07,0,.14,0,.21,0,5.27,0,9.47-2.59,10.96-6.76,1.18-3.33,.75-9.68,.2-12.01-2.1-8.92-13.04-12.84-20.28-15.44-.6-.21-1.15-.41-1.66-.6-6.68-2.46-12.96-4.99-16.2-8.74-2.19-2.53-3.28-8.37-1.41-12.1,2.59-5.16,10.94-7.18,19.47-8.29-1.28,.95-2.29,2.16-2.96,3.59-1.52,3.23-1,8.76-.29,10.95,.9,2.73,3.01,4.83,4.18,5.83,4.16,3.57,9.59,5.33,15.35,7.2,1.86,.6,3.62,1.17,5.25,1.78,5.72,2.12,11.57,4.45,14.75,7.73,1.23,1.26,2.73,3.31,2.93,5.9,.7,9.11-.76,12.52-1.7,13.75-3.45,4.5-10.53,5.91-20.09,6.65l-5.29,.41-.54,5.28c-.12,1.15-.15,2.24-.14,3.27h-2.72Zm-6.05-8.82c-10.68-.5-17.16-2.49-20.39-6.26-1.81-2.11-2.8-5.02-3.01-8.84H23.42c-.24,2.86-.37,5.93,.82,8.94,1.49,3.79,5.34,5.66,9.03,6.3l-3.25-.15ZM48.14,23.37c0-1.55-.18-3.22-.8-4.87-.93-2.47-2.79-4.16-4.96-5.25l1.9,.25c14.28,1.88,18.94,4.75,20.15,9.87h-16.28Zm-9.81-11.44c-.77-.14-1.53-.23-2.27-.26V6.29h2.74c0,.13-.48,5.64-.48,5.64Z"/><path class="cls-4" d="M36.06,86.35v-8.41c.07,0,.14,0,.21,0,5.27,0,9.47-2.59,10.96-6.76,1.18-3.33,.75-9.68,.2-12.01-2.1-8.92-13.04-12.84-20.28-15.44-.6-.21-1.15-.41-1.66-.6-6.68-2.46-12.96-4.99-16.2-8.74-2.19-2.53-3.28-8.37-1.41-12.1,2.59-5.16,10.94-7.18,19.47-8.29-1.28,.95-2.29,2.16-2.96,3.59-1.52,3.23-1,8.76-.29,10.95,.9,2.73,3.01,4.83,4.18,5.83,4.16,3.57,9.59,5.33,15.35,7.2,1.86,.6,3.62,1.17,5.25,1.78,5.72,2.12,11.57,4.45,14.75,7.73,1.23,1.26,2.73,3.31,2.93,5.9,.7,9.11-.76,12.52-1.7,13.75-3.45,4.5-10.53,5.91-20.09,6.65l-5.29,.41-.54,5.28c-.12,1.15-.15,2.24-.14,3.27h-2.72Zm-6.05-8.82c-10.68-.5-17.16-2.49-20.39-6.26-1.81-2.11-2.8-5.02-3.01-8.84H23.42c-.24,2.86-.37,5.93,.82,8.94,1.49,3.79,5.34,5.66,9.03,6.3l-3.25-.15ZM48.14,23.37c0-1.55-.18-3.22-.8-4.87-.93-2.47-2.79-4.16-4.96-5.25l1.9,.25c14.28,1.88,18.94,4.75,20.15,9.87h-16.28Zm-9.81-11.44c-.77-.14-1.53-.23-2.27-.26V6.29h2.74c0,.13-.48,5.64-.48,5.64Z"/><g class="cls-7"><g class="cls-8"><g><g class="cls-9"><g><path class="cls-12" d="M5.17,22.41c-.18-.17-.44-.23-.72-.08l-.15,.09h1.74l-.15-.09c-.27-.16-.54-.09-.72,.08Z"/><path class="cls-12" d="M5.88,19.42c-.27-.16-.54-.09-.72,.08-.18-.17-.44-.23-.72-.08-1.73,1-3.47,2-5.2,3H1.77l2.32-1.34,.99-.57s.05-.03,.08-.05c.02,.02,.05,.04,.08,.05l3.32,1.91h2.53c-1.4-.81-2.81-1.62-4.21-2.43l-.99-.57Z"/><path class="cls-12" d="M12.87,12.62c-2.34,1.35-4.68,2.7-7.03,4.06l-.67,.39c-2.24-1.29-4.47-2.58-6.71-3.87l-.99-.57c-.27-.16-.54-.09-.72,.08h0v.96h0s.05,.04,.08,.05l1.18,.68-1.25,.72h0v1.36h0s.04,0,.05,0c.08,0,.17-.03,.26-.09l2.2-1.27,1.26,.73c-1.26,.73-2.52,1.45-3.78,2.18h0v1.36h0s.04,0,.05,0c.08,0,.17-.03,.26-.09,1.57-.91,3.15-1.82,4.72-2.73l1.26,.73c-1.9,1.1-3.8,2.19-5.7,3.29l-.61,.35h0v1.36h0s.04,0,.05,0c.08,0,.17-.03,.26-.09l6.59-3.8,.66-.38,.53,.31c.1,.06,.21,.09,.3,.09,0,0,.01,0,.02,0h0s.04,0,.06,0c.08,0,.17-.03,.26-.09l.53-.31c2.11,1.22,4.21,2.43,6.32,3.65l.93,.53c.09,.05,.17,.08,.25,.08,.02,0,.03,0,.05,0h.01v-1.36h0c-2.09-1.21-4.18-2.41-6.27-3.62l-.03-.02,1.26-.73c1.57,.91,3.15,1.82,4.72,2.73,.09,.05,.17,.08,.25,.08,.02,0,.03,0,.05,0h.01v-1.36h0l-3.78-2.18,1.26-.73,2.2,1.27c.09,.05,.17,.08,.25,.08,.02,0,.03,0,.05,0h.01v-1.36h0l-1.25-.72,.18-.11,.99-.57s.05-.03,.08-.05h0v-.96h0c-.18-.17-.44-.23-.72-.08Z"/><path class="cls-12" d="M12.87,9.71c-2.34,1.35-4.68,2.7-7.03,4.06l-.67,.39L-1.54,10.28l-.99-.57c-.27-.16-.54-.09-.72,.08h0v.96h0s.05,.04,.08,.05L3.85,14.86l.99,.57c.09,.05,.17,.08,.25,.08,.02,0,.03,0,.05,0,0,0,.01,0,.02,0h0s.04,0,.05,0c.08,0,.17-.03,.26-.09,2.34-1.35,4.68-2.7,7.03-4.06l.99-.57s.05-.03,.08-.05h0v-.96h0c-.18-.17-.44-.23-.72-.08Z"/><path class="cls-12" d="M12.87,6.79c-2.34,1.35-4.68,2.7-7.03,4.06l-.67,.39c-2.24-1.29-4.47-2.58-6.71-3.87l-.99-.57c-.27-.16-.54-.09-.72,.08h0v.96h0s.05,.04,.08,.05L3.85,11.94l.99,.57c.09,.05,.17,.08,.25,.08,.02,0,.03,0,.05,0,0,0,.01,0,.02,0h0s.04,0,.05,0c.08,0,.17-.03,.26-.09,2.34-1.35,4.68-2.7,7.03-4.06l.99-.57s.05-.03,.08-.05h0v-.96h0c-.18-.17-.44-.23-.72-.08Z"/><path class="cls-12" d="M5.88,0c-.27-.16-.54-.09-.72,.08-.18-.17-.44-.23-.72-.08L-2.58,4.06l-.67,.39h0v1.36h0s.04,0,.06,0c.08,0,.17-.03,.26-.09l.53-.31,6.32,3.65,.93,.53c.09,.05,.17,.08,.25,.08,.02,0,.03,0,.05,0,0,0,.01,0,.02,0h0s.04,0,.05,0c.08,0,.17-.03,.26-.09l6.59-3.8,.66-.38,.53,.31c.1,.06,.21,.09,.3,.09h.01v-1.36h0c-2.24-1.29-4.47-2.58-6.71-3.87l-.99-.57Zm-1.79,1.66l.99-.57s.05-.03,.08-.05c.02,.02,.05,.04,.08,.05l1.18,.68-1.25,.72-1.25-.72,.18-.11Zm1.68,6.31l-.61,.35L-1.11,4.7l-.03-.02L.12,3.96l4.72,2.73c.09,.05,.17,.08,.25,.08,.02,0,.03,0,.05,0,0,0,.01,0,.02,0h0s.04,0,.05,0c.08,0,.17-.03,.26-.09l4.72-2.73,1.26,.73c-1.9,1.1-3.8,2.19-5.7,3.29Zm-.61-2.56c-1.26-.73-2.52-1.45-3.78-2.18l1.26-.73,2.2,1.27c.09,.05,.17,.08,.25,.08,.02,0,.03,0,.05,0,0,0,.01,0,.02,0h0s.04,0,.05,0c.08,0,.17-.03,.26-.09l2.2-1.27,1.26,.73-3.78,2.18Z"/><path class="cls-12" d="M6.04-2.83h-1.74L-2.58,1.14l-.67,.39h0v1.36h0s.04,0,.05,0c.08,0,.17-.03,.26-.09C-.59,1.45,1.75,.1,4.09-1.25l.99-.57s.05-.03,.08-.05c.02,.02,.05,.04,.08,.05C7.59-.47,9.93,.88,12.27,2.23l.99,.57c.09,.05,.17,.08,.25,.08,.02,0,.03,0,.05,0h.01V1.53h0C11.35,.24,9.11-1.05,6.87-2.34l-.84-.48Z"/></g><g><path class="cls-12" d="M5.17,47.66c-.18-.17-.44-.23-.72-.08l-.15,.09h1.74l-.15-.09c-.27-.16-.54-.09-.72,.08Z"/><path class="cls-12" d="M5.88,44.67c-.27-.16-.54-.09-.72,.08-.18-.17-.44-.23-.72-.08-1.73,1-3.47,2-5.2,3H1.77l2.32-1.34,.99-.57s.05-.03,.08-.05c.02,.02,.05,.04,.08,.05l3.32,1.91h2.53c-1.4-.81-2.81-1.62-4.21-2.43l-.99-.57Z"/><path class="cls-12" d="M12.87,37.87c-2.34,1.35-4.68,2.7-7.03,4.06l-.67,.39c-2.24-1.29-4.47-2.58-6.71-3.87l-.99-.57c-.27-.16-.54-.09-.72,.08h0v.96h0s.05,.04,.08,.05l1.18,.68-1.25,.72h0v1.36h0s.04,0,.05,0c.08,0,.17-.03,.26-.09l2.2-1.27,1.26,.73c-1.26,.73-2.52,1.45-3.78,2.18h0v1.36h0s.04,0,.05,0c.08,0,.17-.03,.26-.09,1.57-.91,3.15-1.82,4.72-2.73l1.26,.73c-1.9,1.1-3.8,2.19-5.7,3.29l-.61,.35h0v1.36h0s.04,0,.05,0c.08,0,.17-.03,.26-.09l6.59-3.8,.66-.38,.53,.31c.1,.06,.21,.09,.3,.09,0,0,.01,0,.02,0h0s.04,0,.06,0c.08,0,.17-.03,.26-.09l.53-.31c2.11,1.22,4.21,2.43,6.32,3.65l.93,.53c.09,.05,.17,.08,.25,.08,.02,0,.03,0,.05,0h.01v-1.36h0c-2.09-1.21-4.18-2.41-6.27-3.62l-.03-.02,1.26-.73c1.57,.91,3.15,1.82,4.72,2.73,.09,.05,.17,.08,.25,.08,.02,0,.03,0,.05,0h.01v-1.36h0l-3.78-2.18,1.26-.73,2.2,1.27c.09,.05,.17,.08,.25,.08,.02,0,.03,0,.05,0h.01v-1.36h0l-1.25-.72,.18-.11,.99-.57s.05-.03,.08-.05h0v-.96h0c-.18-.17-.44-.23-.72-.08Z"/><path class="cls-12" d="M12.87,34.96c-2.34,1.35-4.68,2.7-7.03,4.06l-.67,.39-6.71-3.87-.99-.57c-.27-.16-.54-.09-.72,.08h0v.96h0s.05,.04,.08,.05l7.03,4.06,.99,.57c.09,.05,.17,.08,.25,.08,.02,0,.03,0,.05,0,0,0,.01,0,.02,0h0s.04,0,.05,0c.08,0,.17-.03,.26-.09,2.34-1.35,4.68-2.7,7.03-4.06l.99-.57s.05-.03,.08-.05h0v-.96h0c-.18-.17-.44-.23-.72-.08Z"/><path class="cls-12" d="M12.87,32.04c-2.34,1.35-4.68,2.7-7.03,4.06l-.67,.39c-2.24-1.29-4.47-2.58-6.71-3.87l-.99-.57c-.27-.16-.54-.09-.72,.08h0v.96h0s.05,.04,.08,.05l7.03,4.06,.99,.57c.09,.05,.17,.08,.25,.08,.02,0,.03,0,.05,0,0,0,.01,0,.02,0h0s.04,0,.05,0c.08,0,.17-.03,.26-.09,2.34-1.35,4.68-2.7,7.03-4.06l.99-.57s.05-.03,.08-.05h0v-.96h0c-.18-.17-.44-.23-.72-.08Z"/><path class="cls-12" d="M5.88,25.25c-.27-.16-.54-.09-.72,.08-.18-.17-.44-.23-.72-.08l-7.03,4.06-.67,.39h0v1.36h0s.04,0,.06,0c.08,0,.17-.03,.26-.09l.53-.31,6.32,3.65,.93,.53c.09,.05,.17,.08,.25,.08,.02,0,.03,0,.05,0,0,0,.01,0,.02,0h0s.04,0,.05,0c.08,0,.17-.03,.26-.09l6.59-3.8,.66-.38,.53,.31c.1,.06,.21,.09,.3,.09h.01v-1.36h0c-2.24-1.29-4.47-2.58-6.71-3.87l-.99-.57Zm-1.79,1.66l.99-.57s.05-.03,.08-.05c.02,.02,.05,.04,.08,.05l1.18,.68-1.25,.72-1.25-.72,.18-.11Zm1.68,6.31l-.61,.35-6.27-3.62-.03-.02,1.26-.73,4.72,2.73c.09,.05,.17,.08,.25,.08,.02,0,.03,0,.05,0,0,0,.01,0,.02,0h0s.04,0,.05,0c.08,0,.17-.03,.26-.09l4.72-2.73,1.26,.73c-1.9,1.1-3.8,2.19-5.7,3.29Zm-.61-2.56c-1.26-.73-2.52-1.45-3.78-2.18l1.26-.73,2.2,1.27c.09,.05,.17,.08,.25,.08,.02,0,.03,0,.05,0,0,0,.01,0,.02,0h0s.04,0,.05,0c.08,0,.17-.03,.26-.09l2.2-1.27,1.26,.73-3.78,2.18Z"/><path class="cls-12" d="M6.04,22.42h-1.74l-6.87,3.97-.67,.39h0v1.36h0s.04,0,.05,0c.08,0,.17-.03,.26-.09,2.34-1.35,4.68-2.7,7.03-4.06l.99-.57s.05-.03,.08-.05c.02,.02,.05,.04,.08,.05,2.34,1.35,4.68,2.7,7.03,4.06l.99,.57c.09,.05,.17,.08,.25,.08,.02,0,.03,0,.05,0h.01v-1.36h0c-2.24-1.29-4.47-2.58-6.71-3.87l-.84-.48Z"/><path class="cls-12" d="M11.09,22.42h-2.53l3.71,2.14,.99,.57c.09,.05,.17,.08,.25,.08,.02,0,.03,0,.05,0h.01v-1.36h0l-2.5-1.44Z"/><path class="cls-12" d="M-3.25,25.23s.04,0,.05,0c.08,0,.17-.03,.26-.09l4.7-2.72H-.75l-1.82,1.05-.67,.39h0v1.36h0Z"/></g></g><g class="cls-9"><g><path class="cls-12" d="M22,22.41c-.18-.17-.44-.23-.72-.08l-.15,.09h1.74l-.15-.09c-.27-.16-.54-.09-.72,.08Z"/><path class="cls-12" d="M22.71,19.42c-.27-.16-.54-.09-.72,.08-.18-.17-.44-.23-.72-.08-1.73,1-3.47,2-5.2,3h2.53l2.32-1.34,.99-.57s.05-.03,.08-.05c.02,.02,.05,.04,.08,.05l3.32,1.91h2.53c-1.4-.81-2.81-1.62-4.21-2.43l-.99-.57Z"/><path class="cls-12" d="M29.7,12.62c-2.34,1.35-4.68,2.7-7.03,4.06l-.67,.39c-2.24-1.29-4.47-2.58-6.71-3.87l-.99-.57c-.27-.16-.54-.09-.72,.08h0v.96h0s.05,.04,.08,.05l1.18,.68-1.25,.72h0v1.36h0s.04,0,.05,0c.08,0,.17-.03,.26-.09l2.2-1.27,1.26,.73c-1.26,.73-2.52,1.45-3.78,2.18h0v1.36h0s.04,0,.05,0c.08,0,.17-.03,.26-.09,1.57-.91,3.15-1.82,4.72-2.73l1.26,.73c-1.9,1.1-3.8,2.19-5.7,3.29l-.61,.35h0v1.36h0s.04,0,.05,0c.08,0,.17-.03,.26-.09l6.59-3.8,.66-.38,.53,.31c.1,.06,.21,.09,.3,.09,0,0,.01,0,.02,0h0s.04,0,.06,0c.08,0,.17-.03,.26-.09l.53-.31c2.11,1.22,4.21,2.43,6.32,3.65l.93,.53c.09,.05,.17,.08,.25,.08,.02,0,.03,0,.05,0h.01v-1.36h0c-2.09-1.21-4.18-2.41-6.27-3.62l-.03-.02,1.26-.73c1.57,.91,3.15,1.82,4.72,2.73,.09,.05,.17,.08,.25,.08,.02,0,.03,0,.05,0h.01v-1.36h0l-3.78-2.18,1.26-.73,2.2,1.27c.09,.05,.17,.08,.25,.08,.02,0,.03,0,.05,0h.01v-1.36h0l-1.25-.72,.18-.11,.99-.57s.05-.03,.08-.05h0v-.96h0c-.18-.17-.44-.23-.72-.08Z"/><path class="cls-12" d="M29.7,9.71c-2.34,1.35-4.68,2.7-7.03,4.06l-.67,.39-6.71-3.87-.99-.57c-.27-.16-.54-.09-.72,.08h0v.96h0s.05,.04,.08,.05l7.03,4.06,.99,.57c.09,.05,.17,.08,.25,.08,.02,0,.03,0,.05,0,0,0,.01,0,.02,0h0s.04,0,.05,0c.08,0,.17-.03,.26-.09,2.34-1.35,4.68-2.7,7.03-4.06l.99-.57s.05-.03,.08-.05h0v-.96h0c-.18-.17-.44-.23-.72-.08Z"/><path class="cls-12" d="M29.7,6.79c-2.34,1.35-4.68,2.7-7.03,4.06l-.67,.39c-2.24-1.29-4.47-2.58-6.71-3.87l-.99-.57c-.27-.16-.54-.09-.72,.08h0v.96h0s.05,.04,.08,.05l7.03,4.06,.99,.57c.09,.05,.17,.08,.25,.08,.02,0,.03,0,.05,0,0,0,.01,0,.02,0h0s.04,0,.05,0c.08,0,.17-.03,.26-.09,2.34-1.35,4.68-2.7,7.03-4.06l.99-.57s.05-.03,.08-.05h0v-.96h0c-.18-.17-.44-.23-.72-.08Z"/><path class="cls-12" d="M22.71,0c-.27-.16-.54-.09-.72,.08-.18-.17-.44-.23-.72-.08l-7.03,4.06-.67,.39h0v1.36h0s.04,0,.06,0c.08,0,.17-.03,.26-.09l.53-.31,6.32,3.65,.93,.53c.09,.05,.17,.08,.25,.08,.02,0,.03,0,.05,0,0,0,.01,0,.02,0h0s.04,0,.05,0c.08,0,.17-.03,.26-.09,2.2-1.27,4.39-2.54,6.59-3.8l.66-.38,.53,.31c.1,.06,.21,.09,.3,.09h.01v-1.36h0c-2.24-1.29-4.47-2.58-6.71-3.87l-.99-.57Zm-1.79,1.66l.99-.57s.05-.03,.08-.05c.02,.02,.05,.04,.08,.05l1.18,.68-1.25,.72-1.25-.72,.18-.11Zm1.68,6.31l-.61,.35-6.27-3.62-.03-.02,1.26-.73,4.72,2.73c.09,.05,.17,.08,.25,.08,.02,0,.03,0,.05,0,0,0,.01,0,.02,0h0s.04,0,.05,0c.08,0,.17-.03,.26-.09l4.72-2.73,1.26,.73c-1.9,1.1-3.8,2.19-5.7,3.29Zm-.61-2.56c-1.26-.73-2.52-1.45-3.78-2.18l1.26-.73,2.2,1.27c.09,.05,.17,.08,.25,.08,.02,0,.03,0,.05,0,0,0,.01,0,.02,0h0s.04,0,.05,0c.08,0,.17-.03,.26-.09l2.2-1.27,1.26,.73c-1.26,.73-2.52,1.45-3.78,2.18Z"/><path class="cls-12" d="M22.87-2.83h-1.74L14.26,1.14l-.67,.39h0v1.36h0s.04,0,.05,0c.08,0,.17-.03,.26-.09L20.93-1.25l.99-.57s.05-.03,.08-.05c.02,.02,.05,.04,.08,.05l7.03,4.06,.99,.57c.09,.05,.17,.08,.25,.08,.02,0,.03,0,.05,0h.01V1.53h0c-2.24-1.29-4.47-2.58-6.71-3.87l-.84-.48Z"/></g><g><path class="cls-12" d="M38.83,22.41c-.18-.17-.44-.23-.72-.08l-.15,.09h1.74l-.15-.09c-.27-.16-.54-.09-.72,.08Z"/><path class="cls-12" d="M39.55,19.42c-.27-.16-.54-.09-.72,.08-.18-.17-.44-.23-.72-.08-1.73,1-3.47,2-5.2,3h2.53l2.32-1.34,.99-.57s.05-.03,.08-.05c.02,.02,.05,.04,.08,.05l3.32,1.91h2.53c-1.4-.81-2.81-1.62-4.21-2.43l-.99-.57Z"/><path class="cls-12" d="M46.53,12.62c-2.34,1.35-4.68,2.7-7.03,4.06l-.67,.39c-2.24-1.29-4.47-2.58-6.71-3.87l-.99-.57c-.27-.16-.54-.09-.72,.08h0v.96h0s.05,.04,.08,.05l1.18,.68-1.25,.72h0v1.36h0s.04,0,.05,0c.08,0,.17-.03,.26-.09l2.2-1.27,1.26,.73-3.78,2.18h0v1.36h0s.04,0,.05,0c.08,0,.17-.03,.26-.09l4.72-2.73,1.26,.73c-1.9,1.1-3.8,2.19-5.7,3.29l-.61,.35h0v1.36h0s.04,0,.05,0c.08,0,.17-.03,.26-.09l6.59-3.8,.66-.38,.53,.31c.1,.06,.21,.09,.3,.09,0,0,.01,0,.02,0h0s.04,0,.06,0c.08,0,.17-.03,.26-.09l.53-.31,6.32,3.65,.93,.53c.09,.05,.17,.08,.25,.08,.02,0,.03,0,.05,0h.01v-1.36h0c-2.09-1.21-4.18-2.41-6.27-3.62l-.03-.02,1.26-.73c1.57,.91,3.15,1.82,4.72,2.73,.09,.05,.17,.08,.25,.08,.02,0,.03,0,.05,0h.01v-1.36h0l-3.78-2.18,1.26-.73,2.2,1.27c.09,.05,.17,.08,.25,.08,.02,0,.03,0,.05,0h.01v-1.36h0l-1.25-.72,.18-.11,.99-.57s.05-.03,.08-.05h0v-.96h0c-.18-.17-.44-.23-.72-.08Z"/><path class="cls-12" d="M46.53,9.71c-2.34,1.35-4.68,2.7-7.03,4.06l-.67,.39c-2.24-1.29-4.47-2.58-6.71-3.87l-.99-.57c-.27-.16-.54-.09-.72,.08h0v.96h0s.05,.04,.08,.05c2.34,1.35,4.68,2.7,7.03,4.06l.99,.57c.09,.05,.17,.08,.25,.08,.02,0,.03,0,.05,0,0,0,.01,0,.02,0h0s.04,0,.05,0c.08,0,.17-.03,.26-.09l7.03-4.06,.99-.57s.05-.03,.08-.05h0v-.96h0c-.18-.17-.44-.23-.72-.08Z"/><path class="cls-12" d="M46.53,6.79c-2.34,1.35-4.68,2.7-7.03,4.06l-.67,.39-6.71-3.87-.99-.57c-.27-.16-.54-.09-.72,.08h0v.96h0s.05,.04,.08,.05c2.34,1.35,4.68,2.7,7.03,4.06l.99,.57c.09,.05,.17,.08,.25,.08,.02,0,.03,0,.05,0,0,0,.01,0,.02,0h0s.04,0,.05,0c.08,0,.17-.03,.26-.09l7.03-4.06,.99-.57s.05-.03,.08-.05h0v-.96h0c-.18-.17-.44-.23-.72-.08Z"/><path class="cls-12" d="M39.55,0c-.27-.16-.54-.09-.72,.08-.18-.17-.44-.23-.72-.08-2.34,1.35-4.68,2.7-7.03,4.06l-.67,.39h0v1.36h0s.04,0,.06,0c.08,0,.17-.03,.26-.09l.53-.31c2.11,1.22,4.21,2.43,6.32,3.65l.93,.53c.09,.05,.17,.08,.25,.08,.02,0,.03,0,.05,0,0,0,.01,0,.02,0h0s.04,0,.05,0c.08,0,.17-.03,.26-.09l6.59-3.8,.66-.38,.53,.31c.1,.06,.21,.09,.3,.09h.01v-1.36h0c-2.24-1.29-4.47-2.58-6.71-3.87l-.99-.57Zm-1.79,1.66l.99-.57s.05-.03,.08-.05c.02,.02,.05,.04,.08,.05l1.18,.68-1.25,.72-1.25-.72,.18-.11Zm1.68,6.31l-.61,.35c-2.09-1.21-4.18-2.41-6.27-3.62l-.03-.02,1.26-.73,4.72,2.73c.09,.05,.17,.08,.25,.08,.02,0,.03,0,.05,0,0,0,.01,0,.02,0h0s.04,0,.05,0c.08,0,.17-.03,.26-.09l4.72-2.73,1.26,.73c-1.9,1.1-3.8,2.19-5.7,3.29Zm-.61-2.56c-1.26-.73-2.52-1.45-3.78-2.18l1.26-.73,2.2,1.27c.09,.05,.17,.08,.25,.08,.02,0,.03,0,.05,0,0,0,.01,0,.02,0h0s.04,0,.05,0c.08,0,.17-.03,.26-.09l2.2-1.27,1.26,.73c-1.26,.73-2.52,1.45-3.78,2.18Z"/><path class="cls-12" d="M39.7-2.83h-1.74c-2.29,1.32-4.58,2.65-6.87,3.97l-.67,.39h0v1.36h0s.04,0,.05,0c.08,0,.17-.03,.26-.09l7.03-4.06,.99-.57s.05-.03,.08-.05c.02,.02,.05,.04,.08,.05l7.03,4.06,.99,.57c.09,.05,.17,.08,.25,.08,.02,0,.03,0,.05,0h.01V1.53h0c-2.24-1.29-4.47-2.58-6.71-3.87l-.84-.48Z"/></g><g><path class="cls-12" d="M55.66,22.41c-.18-.17-.44-.23-.72-.08l-.15,.09h1.74l-.15-.09c-.27-.16-.54-.09-.72,.08Z"/><path class="cls-12" d="M56.38,19.42c-.27-.16-.54-.09-.72,.08-.18-.17-.44-.23-.72-.08-1.73,1-3.47,2-5.2,3h2.53l2.32-1.34,.99-.57s.05-.03,.08-.05c.02,.02,.05,.04,.08,.05l3.32,1.91h2.53c-1.4-.81-2.81-1.62-4.21-2.43l-.99-.57Z"/><path class="cls-12" d="M63.37,12.62c-2.34,1.35-4.68,2.7-7.03,4.06l-.67,.39c-2.24-1.29-4.47-2.58-6.71-3.87l-.99-.57c-.27-.16-.54-.09-.72,.08h0v.96h0s.05,.04,.08,.05l1.18,.68-1.25,.72h0v1.36h0s.04,0,.05,0c.08,0,.17-.03,.26-.09l2.2-1.27,1.26,.73c-1.26,.73-2.52,1.45-3.78,2.18h0v1.36h0s.04,0,.05,0c.08,0,.17-.03,.26-.09,1.57-.91,3.15-1.82,4.72-2.73l1.26,.73c-1.9,1.1-3.8,2.19-5.7,3.29l-.61,.35h0v1.36h0s.04,0,.05,0c.08,0,.17-.03,.26-.09l6.59-3.8,.66-.38,.53,.31c.1,.06,.21,.09,.3,.09,0,0,.01,0,.02,0h0s.04,0,.06,0c.08,0,.17-.03,.26-.09l.53-.31c2.11,1.22,4.21,2.43,6.32,3.65l.93,.53c.09,.05,.17,.08,.25,.08,.02,0,.03,0,.05,0h.01v-1.36h0c-2.09-1.21-4.18-2.41-6.27-3.62l-.03-.02,1.26-.73c1.57,.91,3.15,1.82,4.72,2.73,.09,.05,.17,.08,.25,.08,.02,0,.03,0,.05,0h.01v-1.36h0l-3.78-2.18,1.26-.73,2.2,1.27c.09,.05,.17,.08,.25,.08,.02,0,.03,0,.05,0h.01v-1.36h0l-1.25-.72,.18-.11,.99-.57s.05-.03,.08-.05h0v-.96h0c-.18-.17-.44-.23-.72-.08Z"/><path class="cls-12" d="M63.37,9.71c-2.34,1.35-4.68,2.7-7.03,4.06l-.67,.39-6.71-3.87-.99-.57c-.27-.16-.54-.09-.72,.08h0v.96h0s.05,.04,.08,.05l7.03,4.06,.99,.57c.09,.05,.17,.08,.25,.08,.02,0,.03,0,.05,0,0,0,.01,0,.02,0h0s.04,0,.05,0c.08,0,.17-.03,.26-.09,2.34-1.35,4.68-2.7,7.03-4.06l.99-.57s.05-.03,.08-.05h0v-.96h0c-.18-.17-.44-.23-.72-.08Z"/><path class="cls-12" d="M63.37,6.79c-2.34,1.35-4.68,2.7-7.03,4.06l-.67,.39c-2.24-1.29-4.47-2.58-6.71-3.87l-.99-.57c-.27-.16-.54-.09-.72,.08h0v.96h0s.05,.04,.08,.05l7.03,4.06,.99,.57c.09,.05,.17,.08,.25,.08,.02,0,.03,0,.05,0,0,0,.01,0,.02,0h0s.04,0,.05,0c.08,0,.17-.03,.26-.09,2.34-1.35,4.68-2.7,7.03-4.06l.99-.57s.05-.03,.08-.05h0v-.96h0c-.18-.17-.44-.23-.72-.08Z"/><path class="cls-12" d="M56.38,0c-.27-.16-.54-.09-.72,.08-.18-.17-.44-.23-.72-.08l-7.03,4.06-.67,.39h0v1.36h0s.04,0,.06,0c.08,0,.17-.03,.26-.09l.53-.31,6.32,3.65,.93,.53c.09,.05,.17,.08,.25,.08,.02,0,.03,0,.05,0,0,0,.01,0,.02,0h0s.04,0,.05,0c.08,0,.17-.03,.26-.09l6.59-3.8,.66-.38,.53,.31c.1,.06,.21,.09,.3,.09h.01v-1.36h0c-2.24-1.29-4.47-2.58-6.71-3.87l-.99-.57Zm-1.79,1.66l.99-.57s.05-.03,.08-.05c.02,.02,.05,.04,.08,.05l1.18,.68-1.25,.72-1.25-.72,.18-.11Zm1.68,6.31l-.61,.35-6.27-3.62-.03-.02,1.26-.73,4.72,2.73c.09,.05,.17,.08,.25,.08,.02,0,.03,0,.05,0,0,0,.01,0,.02,0h0s.04,0,.05,0c.08,0,.17-.03,.26-.09l4.72-2.73,1.26,.73c-1.9,1.1-3.8,2.19-5.7,3.29Zm-.61-2.56c-1.26-.73-2.52-1.45-3.78-2.18l1.26-.73,2.2,1.27c.09,.05,.17,.08,.25,.08,.02,0,.03,0,.05,0,0,0,.01,0,.02,0h0s.04,0,.05,0c.08,0,.17-.03,.26-.09l2.2-1.27,1.26,.73-3.78,2.18Z"/><path class="cls-12" d="M56.53-2.83h-1.74l-6.87,3.97-.67,.39h0v1.36h0s.04,0,.05,0c.08,0,.17-.03,.26-.09,2.34-1.35,4.68-2.7,7.03-4.06l.99-.57s.05-.03,.08-.05c.02,.02,.05,.04,.08,.05,2.34,1.35,4.68,2.7,7.03,4.06l.99,.57c.09,.05,.17,.08,.25,.08,.02,0,.03,0,.05,0h.01V1.53h0c-2.24-1.29-4.47-2.58-6.71-3.87l-.84-.48Z"/></g><g><path class="cls-12" d="M22,47.66c-.18-.17-.44-.23-.72-.08l-.15,.09h1.74l-.15-.09c-.27-.16-.54-.09-.72,.08Z"/><path class="cls-12" d="M22.71,44.67c-.27-.16-.54-.09-.72,.08-.18-.17-.44-.23-.72-.08-1.73,1-3.47,2-5.2,3h2.53l2.32-1.34,.99-.57s.05-.03,.08-.05c.02,.02,.05,.04,.08,.05l3.32,1.91h2.53c-1.4-.81-2.81-1.62-4.21-2.43l-.99-.57Z"/><path class="cls-12" d="M29.7,37.87c-2.34,1.35-4.68,2.7-7.03,4.06l-.67,.39c-2.24-1.29-4.47-2.58-6.71-3.87l-.99-.57c-.27-.16-.54-.09-.72,.08h0v.96h0s.05,.04,.08,.05l1.18,.68-1.25,.72h0v1.36h0s.04,0,.05,0c.08,0,.17-.03,.26-.09l2.2-1.27,1.26,.73c-1.26,.73-2.52,1.45-3.78,2.18h0v1.36h0s.04,0,.05,0c.08,0,.17-.03,.26-.09,1.57-.91,3.15-1.82,4.72-2.73l1.26,.73c-1.9,1.1-3.8,2.19-5.7,3.29l-.61,.35h0v1.36h0s.04,0,.05,0c.08,0,.17-.03,.26-.09l6.59-3.8,.66-.38,.53,.31c.1,.06,.21,.09,.3,.09,0,0,.01,0,.02,0h0s.04,0,.06,0c.08,0,.17-.03,.26-.09l.53-.31c2.11,1.22,4.21,2.43,6.32,3.65l.93,.53c.09,.05,.17,.08,.25,.08,.02,0,.03,0,.05,0h.01v-1.36h0c-2.09-1.21-4.18-2.41-6.27-3.62l-.03-.02,1.26-.73c1.57,.91,3.15,1.82,4.72,2.73,.09,.05,.17,.08,.25,.08,.02,0,.03,0,.05,0h.01v-1.36h0l-3.78-2.18,1.26-.73,2.2,1.27c.09,.05,.17,.08,.25,.08,.02,0,.03,0,.05,0h.01v-1.36h0l-1.25-.72,.18-.11,.99-.57s.05-.03,.08-.05h0v-.96h0c-.18-.17-.44-.23-.72-.08Z"/><path class="cls-12" d="M29.7,34.96c-2.34,1.35-4.68,2.7-7.03,4.06l-.67,.39-6.71-3.87-.99-.57c-.27-.16-.54-.09-.72,.08h0v.96h0s.05,.04,.08,.05l7.03,4.06,.99,.57c.09,.05,.17,.08,.25,.08,.02,0,.03,0,.05,0,0,0,.01,0,.02,0h0s.04,0,.05,0c.08,0,.17-.03,.26-.09,2.34-1.35,4.68-2.7,7.03-4.06l.99-.57s.05-.03,.08-.05h0v-.96h0c-.18-.17-.44-.23-.72-.08Z"/><path class="cls-12" d="M29.7,32.04c-2.34,1.35-4.68,2.7-7.03,4.06l-.67,.39c-2.24-1.29-4.47-2.58-6.71-3.87l-.99-.57c-.27-.16-.54-.09-.72,.08h0v.96h0s.05,.04,.08,.05l7.03,4.06,.99,.57c.09,.05,.17,.08,.25,.08,.02,0,.03,0,.05,0,0,0,.01,0,.02,0h0s.04,0,.05,0c.08,0,.17-.03,.26-.09,2.34-1.35,4.68-2.7,7.03-4.06l.99-.57s.05-.03,.08-.05h0v-.96h0c-.18-.17-.44-.23-.72-.08Z"/><path class="cls-12" d="M22.71,25.25c-.27-.16-.54-.09-.72,.08-.18-.17-.44-.23-.72-.08l-7.03,4.06-.67,.39h0v1.36h0s.04,0,.06,0c.08,0,.17-.03,.26-.09l.53-.31,6.32,3.65,.93,.53c.09,.05,.17,.08,.25,.08,.02,0,.03,0,.05,0,0,0,.01,0,.02,0h0s.04,0,.05,0c.08,0,.17-.03,.26-.09,2.2-1.27,4.39-2.54,6.59-3.8l.66-.38,.53,.31c.1,.06,.21,.09,.3,.09h.01v-1.36h0c-2.24-1.29-4.47-2.58-6.71-3.87l-.99-.57Zm-1.79,1.66l.99-.57s.05-.03,.08-.05c.02,.02,.05,.04,.08,.05l1.18,.68-1.25,.72-1.25-.72,.18-.11Zm1.68,6.31l-.61,.35-6.27-3.62-.03-.02,1.26-.73,4.72,2.73c.09,.05,.17,.08,.25,.08,.02,0,.03,0,.05,0,0,0,.01,0,.02,0h0s.04,0,.05,0c.08,0,.17-.03,.26-.09l4.72-2.73,1.26,.73c-1.9,1.1-3.8,2.19-5.7,3.29Zm-.61-2.56c-1.26-.73-2.52-1.45-3.78-2.18l1.26-.73,2.2,1.27c.09,.05,.17,.08,.25,.08,.02,0,.03,0,.05,0,0,0,.01,0,.02,0h0s.04,0,.05,0c.08,0,.17-.03,.26-.09l2.2-1.27,1.26,.73c-1.26,.73-2.52,1.45-3.78,2.18Z"/><path class="cls-12" d="M22.87,22.42h-1.74l-6.87,3.97-.67,.39h0v1.36h0s.04,0,.05,0c.08,0,.17-.03,.26-.09l7.03-4.06,.99-.57s.05-.03,.08-.05c.02,.02,.05,.04,.08,.05l7.03,4.06,.99,.57c.09,.05,.17,.08,.25,.08,.02,0,.03,0,.05,0h.01v-1.36h0c-2.24-1.29-4.47-2.58-6.71-3.87l-.84-.48Z"/><path class="cls-12" d="M27.92,22.42h-2.53l3.71,2.14,.99,.57c.09,.05,.17,.08,.25,.08,.02,0,.03,0,.05,0h.01v-1.36h0l-2.5-1.44Z"/><path class="cls-12" d="M13.59,25.23s.04,0,.05,0c.08,0,.17-.03,.26-.09,1.57-.91,3.14-1.81,4.7-2.72h-2.53l-1.82,1.05-.67,.39h0v1.36h0Z"/></g><g><path class="cls-12" d="M38.83,47.66c-.18-.17-.44-.23-.72-.08l-.15,.09h1.74l-.15-.09c-.27-.16-.54-.09-.72,.08Z"/><path class="cls-12" d="M39.55,44.67c-.27-.16-.54-.09-.72,.08-.18-.17-.44-.23-.72-.08-1.73,1-3.47,2-5.2,3h2.53l2.32-1.34,.99-.57s.05-.03,.08-.05c.02,.02,.05,.04,.08,.05l3.32,1.91h2.53c-1.4-.81-2.81-1.62-4.21-2.43l-.99-.57Z"/><path class="cls-12" d="M46.53,37.87c-2.34,1.35-4.68,2.7-7.03,4.06l-.67,.39c-2.24-1.29-4.47-2.58-6.71-3.87l-.99-.57c-.27-.16-.54-.09-.72,.08h0v.96h0s.05,.04,.08,.05l1.18,.68-1.25,.72h0v1.36h0s.04,0,.05,0c.08,0,.17-.03,.26-.09l2.2-1.27,1.26,.73-3.78,2.18h0v1.36h0s.04,0,.05,0c.08,0,.17-.03,.26-.09l4.72-2.73,1.26,.73c-1.9,1.1-3.8,2.19-5.7,3.29l-.61,.35h0v1.36h0s.04,0,.05,0c.08,0,.17-.03,.26-.09l6.59-3.8,.66-.38,.53,.31c.1,.06,.21,.09,.3,.09,0,0,.01,0,.02,0h0s.04,0,.06,0c.08,0,.17-.03,.26-.09l.53-.31,6.32,3.65,.93,.53c.09,.05,.17,.08,.25,.08,.02,0,.03,0,.05,0h.01v-1.36h0c-2.09-1.21-4.18-2.41-6.27-3.62l-.03-.02,1.26-.73c1.57,.91,3.15,1.82,4.72,2.73,.09,.05,.17,.08,.25,.08,.02,0,.03,0,.05,0h.01v-1.36h0l-3.78-2.18,1.26-.73,2.2,1.27c.09,.05,.17,.08,.25,.08,.02,0,.03,0,.05,0h.01v-1.36h0l-1.25-.72,.18-.11,.99-.57s.05-.03,.08-.05h0v-.96h0c-.18-.17-.44-.23-.72-.08Z"/><path class="cls-12" d="M46.53,34.96c-2.34,1.35-4.68,2.7-7.03,4.06l-.67,.39c-2.24-1.29-4.47-2.58-6.71-3.87l-.99-.57c-.27-.16-.54-.09-.72,.08h0v.96h0s.05,.04,.08,.05c2.34,1.35,4.68,2.7,7.03,4.06l.99,.57c.09,.05,.17,.08,.25,.08,.02,0,.03,0,.05,0,0,0,.01,0,.02,0h0s.04,0,.05,0c.08,0,.17-.03,.26-.09l7.03-4.06,.99-.57s.05-.03,.08-.05h0v-.96h0c-.18-.17-.44-.23-.72-.08Z"/><path class="cls-12" d="M46.53,32.04c-2.34,1.35-4.68,2.7-7.03,4.06l-.67,.39-6.71-3.87-.99-.57c-.27-.16-.54-.09-.72,.08h0v.96h0s.05,.04,.08,.05c2.34,1.35,4.68,2.7,7.03,4.06l.99,.57c.09,.05,.17,.08,.25,.08,.02,0,.03,0,.05,0,0,0,.01,0,.02,0h0s.04,0,.05,0c.08,0,.17-.03,.26-.09l7.03-4.06,.99-.57s.05-.03,.08-.05h0v-.96h0c-.18-.17-.44-.23-.72-.08Z"/><path class="cls-12" d="M39.55,25.25c-.27-.16-.54-.09-.72,.08-.18-.17-.44-.23-.72-.08-2.34,1.35-4.68,2.7-7.03,4.06l-.67,.39h0v1.36h0s.04,0,.06,0c.08,0,.17-.03,.26-.09l.53-.31c2.11,1.22,4.21,2.43,6.32,3.65l.93,.53c.09,.05,.17,.08,.25,.08,.02,0,.03,0,.05,0,0,0,.01,0,.02,0h0s.04,0,.05,0c.08,0,.17-.03,.26-.09l6.59-3.8,.66-.38,.53,.31c.1,.06,.21,.09,.3,.09h.01v-1.36h0c-2.24-1.29-4.47-2.58-6.71-3.87l-.99-.57Zm-1.79,1.66l.99-.57s.05-.03,.08-.05c.02,.02,.05,.04,.08,.05l1.18,.68-1.25,.72-1.25-.72,.18-.11Zm1.68,6.31l-.61,.35c-2.09-1.21-4.18-2.41-6.27-3.62l-.03-.02,1.26-.73,4.72,2.73c.09,.05,.17,.08,.25,.08,.02,0,.03,0,.05,0,0,0,.01,0,.02,0h0s.04,0,.05,0c.08,0,.17-.03,.26-.09l4.72-2.73,1.26,.73c-1.9,1.1-3.8,2.19-5.7,3.29Zm-.61-2.56c-1.26-.73-2.52-1.45-3.78-2.18l1.26-.73,2.2,1.27c.09,.05,.17,.08,.25,.08,.02,0,.03,0,.05,0,0,0,.01,0,.02,0h0s.04,0,.05,0c.08,0,.17-.03,.26-.09l2.2-1.27,1.26,.73c-1.26,.73-2.52,1.45-3.78,2.18Z"/><path class="cls-12" d="M39.7,22.42h-1.74c-2.29,1.32-4.58,2.65-6.87,3.97l-.67,.39h0v1.36h0s.04,0,.05,0c.08,0,.17-.03,.26-.09l7.03-4.06,.99-.57s.05-.03,.08-.05c.02,.02,.05,.04,.08,.05l7.03,4.06,.99,.57c.09,.05,.17,.08,.25,.08,.02,0,.03,0,.05,0h.01v-1.36h0c-2.24-1.29-4.47-2.58-6.71-3.87l-.84-.48Z"/><path class="cls-12" d="M44.75,22.42h-2.53l3.71,2.14,.99,.57c.09,.05,.17,.08,.25,.08,.02,0,.03,0,.05,0h.01v-1.36h0l-2.5-1.44Z"/><path class="cls-12" d="M30.42,25.23s.04,0,.05,0c.08,0,.17-.03,.26-.09,1.57-.91,3.14-1.81,4.7-2.72h-2.53l-1.82,1.05-.67,.39h0v1.36h0Z"/></g><g><path class="cls-12" d="M55.66,47.66c-.18-.17-.44-.23-.72-.08l-.15,.09h1.74l-.15-.09c-.27-.16-.54-.09-.72,.08Z"/><path class="cls-12" d="M56.38,44.67c-.27-.16-.54-.09-.72,.08-.18-.17-.44-.23-.72-.08-1.73,1-3.47,2-5.2,3h2.53l2.32-1.34,.99-.57s.05-.03,.08-.05c.02,.02,.05,.04,.08,.05l3.32,1.91h2.53c-1.4-.81-2.81-1.62-4.21-2.43l-.99-.57Z"/><path class="cls-12" d="M63.37,37.87c-2.34,1.35-4.68,2.7-7.03,4.06l-.67,.39c-2.24-1.29-4.47-2.58-6.71-3.87l-.99-.57c-.27-.16-.54-.09-.72,.08h0v.96h0s.05,.04,.08,.05l1.18,.68-1.25,.72h0v1.36h0s.04,0,.05,0c.08,0,.17-.03,.26-.09l2.2-1.27,1.26,.73c-1.26,.73-2.52,1.45-3.78,2.18h0v1.36h0s.04,0,.05,0c.08,0,.17-.03,.26-.09,1.57-.91,3.15-1.82,4.72-2.73l1.26,.73c-1.9,1.1-3.8,2.19-5.7,3.29l-.61,.35h0v1.36h0s.04,0,.05,0c.08,0,.17-.03,.26-.09l6.59-3.8,.66-.38,.53,.31c.1,.06,.21,.09,.3,.09,0,0,.01,0,.02,0h0s.04,0,.06,0c.08,0,.17-.03,.26-.09l.53-.31c2.11,1.22,4.21,2.43,6.32,3.65l.93,.53c.09,.05,.17,.08,.25,.08,.02,0,.03,0,.05,0h.01v-1.36h0c-2.09-1.21-4.18-2.41-6.27-3.62l-.03-.02,1.26-.73c1.57,.91,3.15,1.82,4.72,2.73,.09,.05,.17,.08,.25,.08,.02,0,.03,0,.05,0h.01v-1.36h0l-3.78-2.18,1.26-.73,2.2,1.27c.09,.05,.17,.08,.25,.08,.02,0,.03,0,.05,0h.01v-1.36h0l-1.25-.72,.18-.11,.99-.57s.05-.03,.08-.05h0v-.96h0c-.18-.17-.44-.23-.72-.08Z"/><path class="cls-12" d="M63.37,34.96c-2.34,1.35-4.68,2.7-7.03,4.06l-.67,.39-6.71-3.87-.99-.57c-.27-.16-.54-.09-.72,.08h0v.96h0s.05,.04,.08,.05l7.03,4.06,.99,.57c.09,.05,.17,.08,.25,.08,.02,0,.03,0,.05,0,0,0,.01,0,.02,0h0s.04,0,.05,0c.08,0,.17-.03,.26-.09,2.34-1.35,4.68-2.7,7.03-4.06l.99-.57s.05-.03,.08-.05h0v-.96h0c-.18-.17-.44-.23-.72-.08Z"/><path class="cls-12" d="M63.37,32.04c-2.34,1.35-4.68,2.7-7.03,4.06l-.67,.39c-2.24-1.29-4.47-2.58-6.71-3.87l-.99-.57c-.27-.16-.54-.09-.72,.08h0v.96h0s.05,.04,.08,.05l7.03,4.06,.99,.57c.09,.05,.17,.08,.25,.08,.02,0,.03,0,.05,0,0,0,.01,0,.02,0h0s.04,0,.05,0c.08,0,.17-.03,.26-.09,2.34-1.35,4.68-2.7,7.03-4.06l.99-.57s.05-.03,.08-.05h0v-.96h0c-.18-.17-.44-.23-.72-.08Z"/><path class="cls-12" d="M56.38,25.25c-.27-.16-.54-.09-.72,.08-.18-.17-.44-.23-.72-.08l-7.03,4.06-.67,.39h0v1.36h0s.04,0,.06,0c.08,0,.17-.03,.26-.09l.53-.31,6.32,3.65,.93,.53c.09,.05,.17,.08,.25,.08,.02,0,.03,0,.05,0,0,0,.01,0,.02,0h0s.04,0,.05,0c.08,0,.17-.03,.26-.09l6.59-3.8,.66-.38,.53,.31c.1,.06,.21,.09,.3,.09h.01v-1.36h0c-2.24-1.29-4.47-2.58-6.71-3.87l-.99-.57Zm-1.79,1.66l.99-.57s.05-.03,.08-.05c.02,.02,.05,.04,.08,.05l1.18,.68-1.25,.72-1.25-.72,.18-.11Zm1.68,6.31l-.61,.35-6.27-3.62-.03-.02,1.26-.73,4.72,2.73c.09,.05,.17,.08,.25,.08,.02,0,.03,0,.05,0,0,0,.01,0,.02,0h0s.04,0,.05,0c.08,0,.17-.03,.26-.09l4.72-2.73,1.26,.73c-1.9,1.1-3.8,2.19-5.7,3.29Zm-.61-2.56c-1.26-.73-2.52-1.45-3.78-2.18l1.26-.73,2.2,1.27c.09,.05,.17,.08,.25,.08,.02,0,.03,0,.05,0,0,0,.01,0,.02,0h0s.04,0,.05,0c.08,0,.17-.03,.26-.09l2.2-1.27,1.26,.73-3.78,2.18Z"/><path class="cls-12" d="M56.53,22.42h-1.74l-6.87,3.97-.67,.39h0v1.36h0s.04,0,.05,0c.08,0,.17-.03,.26-.09,2.34-1.35,4.68-2.7,7.03-4.06l.99-.57s.05-.03,.08-.05c.02,.02,.05,.04,.08,.05,2.34,1.35,4.68,2.7,7.03,4.06l.99,.57c.09,.05,.17,.08,.25,.08,.02,0,.03,0,.05,0h.01v-1.36h0c-2.24-1.29-4.47-2.58-6.71-3.87l-.84-.48Z"/><path class="cls-12" d="M61.58,22.42h-2.53l3.71,2.14,.99,.57c.09,.05,.17,.08,.25,.08,.02,0,.03,0,.05,0h.01v-1.36h0l-2.5-1.44Z"/><path class="cls-12" d="M47.25,25.23s.04,0,.05,0c.08,0,.17-.03,.26-.09l4.7-2.72h-2.53l-1.82,1.05-.67,.39h0v1.36h0Z"/></g></g><g class="cls-9"><g><path class="cls-12" d="M71.97,22.41c-.18-.17-.44-.23-.72-.08l-.15,.09h1.74l-.15-.09c-.27-.16-.54-.09-.72,.08Z"/><path class="cls-12" d="M72.69,19.42c-.27-.16-.54-.09-.72,.08-.18-.17-.44-.23-.72-.08-1.73,1-3.47,2-5.2,3h2.53l2.32-1.34,.99-.57s.05-.03,.08-.05c.02,.02,.05,.04,.08,.05l3.32,1.91h2.53c-1.4-.81-2.81-1.62-4.21-2.43l-.99-.57Z"/><path class="cls-12" d="M79.67,12.62c-2.34,1.35-4.68,2.7-7.03,4.06l-.67,.39c-2.24-1.29-4.47-2.58-6.71-3.87l-.99-.57c-.27-.16-.54-.09-.72,.08h0v.96h0s.05,.04,.08,.05l1.18,.68-1.25,.72h0v1.36h0s.04,0,.05,0c.08,0,.17-.03,.26-.09l2.2-1.27,1.26,.73c-1.26,.73-2.52,1.45-3.78,2.18h0v1.36h0s.04,0,.05,0c.08,0,.17-.03,.26-.09,1.57-.91,3.15-1.82,4.72-2.73l1.26,.73c-1.9,1.1-3.8,2.19-5.7,3.29l-.61,.35h0v1.36h0s.04,0,.05,0c.08,0,.17-.03,.26-.09l6.59-3.8,.66-.38,.53,.31c.1,.06,.21,.09,.3,.09,0,0,.01,0,.02,0h0s.04,0,.06,0c.08,0,.17-.03,.26-.09l.53-.31c2.11,1.22,4.21,2.43,6.32,3.65l.93,.53c.09,.05,.17,.08,.25,.08,.02,0,.03,0,.05,0h.01v-1.36h0c-2.09-1.21-4.18-2.41-6.27-3.62l-.03-.02,1.26-.73c1.57,.91,3.15,1.82,4.72,2.73,.09,.05,.17,.08,.25,.08,.02,0,.03,0,.05,0h.01v-1.36h0l-3.78-2.18,1.26-.73,2.2,1.27c.09,.05,.17,.08,.25,.08,.02,0,.03,0,.05,0h.01v-1.36h0l-1.25-.72,.18-.11,.99-.57s.05-.03,.08-.05h0v-.96h0c-.18-.17-.44-.23-.72-.08Z"/><path class="cls-12" d="M79.67,9.71c-2.34,1.35-4.68,2.7-7.03,4.06l-.67,.39-6.71-3.87-.99-.57c-.27-.16-.54-.09-.72,.08h0v.96h0s.05,.04,.08,.05l7.03,4.06,.99,.57c.09,.05,.17,.08,.25,.08,.02,0,.03,0,.05,0,0,0,.01,0,.02,0h0s.04,0,.05,0c.08,0,.17-.03,.26-.09,2.34-1.35,4.68-2.7,7.03-4.06l.99-.57s.05-.03,.08-.05h0v-.96h0c-.18-.17-.44-.23-.72-.08Z"/><path class="cls-12" d="M79.67,6.79c-2.34,1.35-4.68,2.7-7.03,4.06l-.67,.39c-2.24-1.29-4.47-2.58-6.71-3.87l-.99-.57c-.27-.16-.54-.09-.72,.08h0v.96h0s.05,.04,.08,.05l7.03,4.06,.99,.57c.09,.05,.17,.08,.25,.08,.02,0,.03,0,.05,0,0,0,.01,0,.02,0h0s.04,0,.05,0c.08,0,.17-.03,.26-.09,2.34-1.35,4.68-2.7,7.03-4.06l.99-.57s.05-.03,.08-.05h0v-.96h0c-.18-.17-.44-.23-.72-.08Z"/><path class="cls-12" d="M72.69,0c-.27-.16-.54-.09-.72,.08-.18-.17-.44-.23-.72-.08l-7.03,4.06-.67,.39h0v1.36h0s.04,0,.06,0c.08,0,.17-.03,.26-.09l.53-.31,6.32,3.65,.93,.53c.09,.05,.17,.08,.25,.08,.02,0,.03,0,.05,0,0,0,.01,0,.02,0h0s.04,0,.05,0c.08,0,.17-.03,.26-.09,2.2-1.27,4.39-2.54,6.59-3.8l.66-.38,.53,.31c.1,.06,.21,.09,.3,.09h.01v-1.36h0c-2.24-1.29-4.47-2.58-6.71-3.87l-.99-.57Zm-1.79,1.66l.99-.57s.05-.03,.08-.05c.02,.02,.05,.04,.08,.05l1.18,.68-1.25,.72-1.25-.72,.18-.11Zm1.68,6.31l-.61,.35-6.27-3.62-.03-.02,1.26-.73,4.72,2.73c.09,.05,.17,.08,.25,.08,.02,0,.03,0,.05,0,0,0,.01,0,.02,0h0s.04,0,.05,0c.08,0,.17-.03,.26-.09l4.72-2.73,1.26,.73c-1.9,1.1-3.8,2.19-5.7,3.29Zm-.61-2.56c-1.26-.73-2.52-1.45-3.78-2.18l1.26-.73,2.2,1.27c.09,.05,.17,.08,.25,.08,.02,0,.03,0,.05,0,0,0,.01,0,.02,0h0s.04,0,.05,0c.08,0,.17-.03,.26-.09l2.2-1.27,1.26,.73c-1.26,.73-2.52,1.45-3.78,2.18Z"/><path class="cls-12" d="M72.84-2.83h-1.74l-6.87,3.97-.67,.39h0v1.36h0s.04,0,.05,0c.08,0,.17-.03,.26-.09l7.03-4.06,.99-.57s.05-.03,.08-.05c.02,.02,.05,.04,.08,.05l7.03,4.06,.99,.57c.09,.05,.17,.08,.25,.08,.02,0,.03,0,.05,0h.01V1.53h0c-2.24-1.29-4.47-2.58-6.71-3.87l-.84-.48Z"/></g><g><path class="cls-12" d="M71.97,47.66c-.18-.17-.44-.23-.72-.08l-.15,.09h1.74l-.15-.09c-.27-.16-.54-.09-.72,.08Z"/><path class="cls-12" d="M72.69,44.67c-.27-.16-.54-.09-.72,.08-.18-.17-.44-.23-.72-.08-1.73,1-3.47,2-5.2,3h2.53l2.32-1.34,.99-.57s.05-.03,.08-.05c.02,.02,.05,.04,.08,.05l3.32,1.91h2.53c-1.4-.81-2.81-1.62-4.21-2.43l-.99-.57Z"/><path class="cls-12" d="M79.67,37.87c-2.34,1.35-4.68,2.7-7.03,4.06l-.67,.39c-2.24-1.29-4.47-2.58-6.71-3.87l-.99-.57c-.27-.16-.54-.09-.72,.08h0v.96h0s.05,.04,.08,.05l1.18,.68-1.25,.72h0v1.36h0s.04,0,.05,0c.08,0,.17-.03,.26-.09l2.2-1.27,1.26,.73c-1.26,.73-2.52,1.45-3.78,2.18h0v1.36h0s.04,0,.05,0c.08,0,.17-.03,.26-.09,1.57-.91,3.15-1.82,4.72-2.73l1.26,.73c-1.9,1.1-3.8,2.19-5.7,3.29l-.61,.35h0v1.36h0s.04,0,.05,0c.08,0,.17-.03,.26-.09l6.59-3.8,.66-.38,.53,.31c.1,.06,.21,.09,.3,.09,0,0,.01,0,.02,0h0s.04,0,.06,0c.08,0,.17-.03,.26-.09l.53-.31c2.11,1.22,4.21,2.43,6.32,3.65l.93,.53c.09,.05,.17,.08,.25,.08,.02,0,.03,0,.05,0h.01v-1.36h0c-2.09-1.21-4.18-2.41-6.27-3.62l-.03-.02,1.26-.73c1.57,.91,3.15,1.82,4.72,2.73,.09,.05,.17,.08,.25,.08,.02,0,.03,0,.05,0h.01v-1.36h0l-3.78-2.18,1.26-.73,2.2,1.27c.09,.05,.17,.08,.25,.08,.02,0,.03,0,.05,0h.01v-1.36h0l-1.25-.72,.18-.11,.99-.57s.05-.03,.08-.05h0v-.96h0c-.18-.17-.44-.23-.72-.08Z"/><path class="cls-12" d="M79.67,34.96c-2.34,1.35-4.68,2.7-7.03,4.06l-.67,.39-6.71-3.87-.99-.57c-.27-.16-.54-.09-.72,.08h0v.96h0s.05,.04,.08,.05l7.03,4.06,.99,.57c.09,.05,.17,.08,.25,.08,.02,0,.03,0,.05,0,0,0,.01,0,.02,0h0s.04,0,.05,0c.08,0,.17-.03,.26-.09,2.34-1.35,4.68-2.7,7.03-4.06l.99-.57s.05-.03,.08-.05h0v-.96h0c-.18-.17-.44-.23-.72-.08Z"/><path class="cls-12" d="M79.67,32.04c-2.34,1.35-4.68,2.7-7.03,4.06l-.67,.39c-2.24-1.29-4.47-2.58-6.71-3.87l-.99-.57c-.27-.16-.54-.09-.72,.08h0v.96h0s.05,.04,.08,.05l7.03,4.06,.99,.57c.09,.05,.17,.08,.25,.08,.02,0,.03,0,.05,0,0,0,.01,0,.02,0h0s.04,0,.05,0c.08,0,.17-.03,.26-.09,2.34-1.35,4.68-2.7,7.03-4.06l.99-.57s.05-.03,.08-.05h0v-.96h0c-.18-.17-.44-.23-.72-.08Z"/><path class="cls-12" d="M72.69,25.25c-.27-.16-.54-.09-.72,.08-.18-.17-.44-.23-.72-.08l-7.03,4.06-.67,.39h0v1.36h0s.04,0,.06,0c.08,0,.17-.03,.26-.09l.53-.31,6.32,3.65,.93,.53c.09,.05,.17,.08,.25,.08,.02,0,.03,0,.05,0,0,0,.01,0,.02,0h0s.04,0,.05,0c.08,0,.17-.03,.26-.09,2.2-1.27,4.39-2.54,6.59-3.8l.66-.38,.53,.31c.1,.06,.21,.09,.3,.09h.01v-1.36h0c-2.24-1.29-4.47-2.58-6.71-3.87l-.99-.57Zm-1.79,1.66l.99-.57s.05-.03,.08-.05c.02,.02,.05,.04,.08,.05l1.18,.68-1.25,.72-1.25-.72,.18-.11Zm1.68,6.31l-.61,.35-6.27-3.62-.03-.02,1.26-.73,4.72,2.73c.09,.05,.17,.08,.25,.08,.02,0,.03,0,.05,0,0,0,.01,0,.02,0h0s.04,0,.05,0c.08,0,.17-.03,.26-.09l4.72-2.73,1.26,.73c-1.9,1.1-3.8,2.19-5.7,3.29Zm-.61-2.56c-1.26-.73-2.52-1.45-3.78-2.18l1.26-.73,2.2,1.27c.09,.05,.17,.08,.25,.08,.02,0,.03,0,.05,0,0,0,.01,0,.02,0h0s.04,0,.05,0c.08,0,.17-.03,.26-.09l2.2-1.27,1.26,.73c-1.26,.73-2.52,1.45-3.78,2.18Z"/><path class="cls-12" d="M72.84,22.42h-1.74l-6.87,3.97-.67,.39h0v1.36h0s.04,0,.05,0c.08,0,.17-.03,.26-.09l7.03-4.06,.99-.57s.05-.03,.08-.05c.02,.02,.05,.04,.08,.05l7.03,4.06,.99,.57c.09,.05,.17,.08,.25,.08,.02,0,.03,0,.05,0h.01v-1.36h0c-2.24-1.29-4.47-2.58-6.71-3.87l-.84-.48Z"/><path class="cls-12" d="M63.56,25.23s.04,0,.05,0c.08,0,.17-.03,.26-.09,1.57-.91,3.14-1.81,4.7-2.72h-2.53l-1.82,1.05-.67,.39h0v1.36h0Z"/></g></g></g><g><g class="cls-9"><g><path class="cls-12" d="M5.17,72.91c-.18-.17-.44-.23-.72-.08l-.15,.09h1.74l-.15-.09c-.27-.16-.54-.09-.72,.08Z"/><path class="cls-12" d="M5.88,69.92c-.27-.16-.54-.09-.72,.08-.18-.17-.44-.23-.72-.08-1.73,1-3.47,2-5.2,3H1.77l2.32-1.34,.99-.57s.05-.03,.08-.05c.02,.02,.05,.04,.08,.05l3.32,1.91h2.53c-1.4-.81-2.81-1.62-4.21-2.43l-.99-.57Z"/><path class="cls-12" d="M12.87,63.13c-2.34,1.35-4.68,2.7-7.03,4.06l-.67,.39c-2.24-1.29-4.47-2.58-6.71-3.87l-.99-.57c-.27-.16-.54-.09-.72,.08h0v.96h0s.05,.04,.08,.05l1.18,.68-1.25,.72h0v1.36h0s.04,0,.05,0c.08,0,.17-.03,.26-.09l2.2-1.27,1.26,.73c-1.26,.73-2.52,1.45-3.78,2.18h0v1.36h0s.04,0,.05,0c.08,0,.17-.03,.26-.09,1.57-.91,3.15-1.82,4.72-2.73l1.26,.73c-1.9,1.1-3.8,2.19-5.7,3.29l-.61,.35h0v1.36h0s.04,0,.05,0c.08,0,.17-.03,.26-.09l6.59-3.8,.66-.38,.53,.31c.1,.06,.21,.09,.3,.09,0,0,.01,0,.02,0h0s.04,0,.06,0c.08,0,.17-.03,.26-.09l.53-.31c2.11,1.22,4.21,2.43,6.32,3.65l.93,.53c.09,.05,.17,.08,.25,.08,.02,0,.03,0,.05,0h.01v-1.36h0c-2.09-1.21-4.18-2.41-6.27-3.62l-.03-.02,1.26-.73c1.57,.91,3.15,1.82,4.72,2.73,.09,.05,.17,.08,.25,.08,.02,0,.03,0,.05,0h.01v-1.36h0l-3.78-2.18,1.26-.73,2.2,1.27c.09,.05,.17,.08,.25,.08,.02,0,.03,0,.05,0h.01v-1.36h0l-1.25-.72,.18-.11,.99-.57s.05-.03,.08-.05h0v-.96h0c-.18-.17-.44-.23-.72-.08Z"/><path class="cls-12" d="M12.87,60.21c-2.34,1.35-4.68,2.7-7.03,4.06l-.67,.39-6.71-3.87-.99-.57c-.27-.16-.54-.09-.72,.08h0v.96h0s.05,.04,.08,.05l7.03,4.06,.99,.57c.09,.05,.17,.08,.25,.08,.02,0,.03,0,.05,0,0,0,.01,0,.02,0h0s.04,0,.05,0c.08,0,.17-.03,.26-.09,2.34-1.35,4.68-2.7,7.03-4.06l.99-.57s.05-.03,.08-.05h0v-.96h0c-.18-.17-.44-.23-.72-.08Z"/><path class="cls-12" d="M12.87,57.3c-2.34,1.35-4.68,2.7-7.03,4.06l-.67,.39c-2.24-1.29-4.47-2.58-6.71-3.87l-.99-.57c-.27-.16-.54-.09-.72,.08h0v.96h0s.05,.04,.08,.05l7.03,4.06,.99,.57c.09,.05,.17,.08,.25,.08,.02,0,.03,0,.05,0,0,0,.01,0,.02,0h0s.04,0,.05,0c.08,0,.17-.03,.26-.09,2.34-1.35,4.68-2.7,7.03-4.06l.99-.57s.05-.03,.08-.05h0v-.96h0c-.18-.17-.44-.23-.72-.08Z"/><path class="cls-12" d="M5.88,50.5c-.27-.16-.54-.09-.72,.08-.18-.17-.44-.23-.72-.08l-7.03,4.06-.67,.39h0v1.36h0s.04,0,.06,0c.08,0,.17-.03,.26-.09l.53-.31,6.32,3.65,.93,.53c.09,.05,.17,.08,.25,.08,.02,0,.03,0,.05,0,0,0,.01,0,.02,0h0s.04,0,.05,0c.08,0,.17-.03,.26-.09l6.59-3.8,.66-.38,.53,.31c.1,.06,.21,.09,.3,.09h.01v-1.36h0c-2.24-1.29-4.47-2.58-6.71-3.87l-.99-.57Zm-1.79,1.66l.99-.57s.05-.03,.08-.05c.02,.02,.05,.04,.08,.05l1.18,.68-1.25,.72-1.25-.72,.18-.11Zm1.68,6.31l-.61,.35-6.27-3.62-.03-.02,1.26-.73,4.72,2.73c.09,.05,.17,.08,.25,.08,.02,0,.03,0,.05,0,0,0,.01,0,.02,0h0s.04,0,.05,0c.08,0,.17-.03,.26-.09l4.72-2.73,1.26,.73c-1.9,1.1-3.8,2.19-5.7,3.29Zm-.61-2.56c-1.26-.73-2.52-1.45-3.78-2.18l1.26-.73,2.2,1.27c.09,.05,.17,.08,.25,.08,.02,0,.03,0,.05,0,0,0,.01,0,.02,0h0s.04,0,.05,0c.08,0,.17-.03,.26-.09l2.2-1.27,1.26,.73-3.78,2.18Z"/><path class="cls-12" d="M6.04,47.68h-1.74l-6.87,3.97-.67,.39h0v1.36h0s.04,0,.05,0c.08,0,.17-.03,.26-.09,2.34-1.35,4.68-2.7,7.03-4.06l.99-.57s.05-.03,.08-.05c.02,.02,.05,.04,.08,.05,2.34,1.35,4.68,2.7,7.03,4.06l.99,.57c.09,.05,.17,.08,.25,.08,.02,0,.03,0,.05,0h.01v-1.36h0c-2.24-1.29-4.47-2.58-6.71-3.87l-.84-.48Z"/><path class="cls-12" d="M11.09,47.68h-2.53l3.71,2.14,.99,.57c.09,.05,.17,.08,.25,.08,.02,0,.03,0,.05,0h.01v-1.36h0l-2.5-1.44Z"/><path class="cls-12" d="M-3.25,50.48s.04,0,.05,0c.08,0,.17-.03,.26-.09l4.7-2.72H-.75l-1.82,1.05-.67,.39h0v1.36h0Z"/></g><g><path class="cls-12" d="M12.87,88.38c-2.34,1.35-4.68,2.7-7.03,4.06l-.67,.39c-2.24-1.29-4.47-2.58-6.71-3.87l-.99-.57c-.27-.16-.54-.09-.72,.08h0v.96h0s.05,.04,.08,.05l1.18,.68-1.25,.72h0v1.36h0s.04,0,.05,0c.08,0,.17-.03,.26-.09l2.2-1.27,1.26,.73c-1.26,.73-2.52,1.45-3.78,2.18h0v1.36h0s.04,0,.05,0c.08,0,.17-.03,.26-.09,1.57-.91,3.15-1.82,4.72-2.73l1.26,.73c-1.9,1.1-3.8,2.19-5.7,3.29l-.61,.35h0v1.36h0s.04,0,.05,0c.08,0,.17-.03,.26-.09l6.59-3.8,.66-.38,.53,.31c.1,.06,.21,.09,.3,.09,0,0,.01,0,.02,0h0s.04,0,.06,0c.08,0,.17-.03,.26-.09l.53-.31c2.11,1.22,4.21,2.43,6.32,3.65l.93,.53c.09,.05,.17,.08,.25,.08,.02,0,.03,0,.05,0h.01v-1.36h0c-2.09-1.21-4.18-2.41-6.27-3.62l-.03-.02,1.26-.73c1.57,.91,3.15,1.82,4.72,2.73,.09,.05,.17,.08,.25,.08,.02,0,.03,0,.05,0h.01v-1.36h0l-3.78-2.18,1.26-.73,2.2,1.27c.09,.05,.17,.08,.25,.08,.02,0,.03,0,.05,0h.01v-1.36h0l-1.25-.72,.18-.11,.99-.57s.05-.03,.08-.05h0v-.96h0c-.18-.17-.44-.23-.72-.08Z"/><path class="cls-12" d="M12.87,85.46c-2.34,1.35-4.68,2.7-7.03,4.06l-.67,.39-6.71-3.87-.99-.57c-.27-.16-.54-.09-.72,.08h0v.96h0s.05,.04,.08,.05l7.03,4.06,.99,.57c.09,.05,.17,.08,.25,.08,.02,0,.03,0,.05,0,0,0,.01,0,.02,0h0s.04,0,.05,0c.08,0,.17-.03,.26-.09,2.34-1.35,4.68-2.7,7.03-4.06l.99-.57s.05-.03,.08-.05h0v-.96h0c-.18-.17-.44-.23-.72-.08Z"/><path class="cls-12" d="M12.87,82.54c-2.34,1.35-4.68,2.7-7.03,4.06l-.67,.39c-2.24-1.29-4.47-2.58-6.71-3.87l-.99-.57c-.27-.16-.54-.09-.72,.08h0v.96h0s.05,.04,.08,.05l7.03,4.06,.99,.57c.09,.05,.17,.08,.25,.08,.02,0,.03,0,.05,0,0,0,.01,0,.02,0h0s.04,0,.05,0c.08,0,.17-.03,.26-.09,2.34-1.35,4.68-2.7,7.03-4.06l.99-.57s.05-.03,.08-.05h0v-.96h0c-.18-.17-.44-.23-.72-.08Z"/><path class="cls-12" d="M5.88,75.75c-.27-.16-.54-.09-.72,.08-.18-.17-.44-.23-.72-.08l-7.03,4.06-.67,.39h0v1.36h0s.04,0,.06,0c.08,0,.17-.03,.26-.09l.53-.31,6.32,3.65,.93,.53c.09,.05,.17,.08,.25,.08,.02,0,.03,0,.05,0,0,0,.01,0,.02,0h0s.04,0,.05,0c.08,0,.17-.03,.26-.09l6.59-3.8,.66-.38,.53,.31c.1,.06,.21,.09,.3,.09h.01v-1.36h0c-2.24-1.29-4.47-2.58-6.71-3.87l-.99-.57Zm-1.79,1.66l.99-.57s.05-.03,.08-.05c.02,.02,.05,.04,.08,.05l1.18,.68-1.25,.72-1.25-.72,.18-.11Zm1.68,6.31l-.61,.35-6.27-3.62-.03-.02,1.26-.73,4.72,2.73c.09,.05,.17,.08,.25,.08,.02,0,.03,0,.05,0,0,0,.01,0,.02,0h0s.04,0,.05,0c.08,0,.17-.03,.26-.09l4.72-2.73,1.26,.73c-1.9,1.1-3.8,2.19-5.7,3.29Zm-.61-2.56c-1.26-.73-2.52-1.45-3.78-2.18l1.26-.73,2.2,1.27c.09,.05,.17,.08,.25,.08,.02,0,.03,0,.05,0,0,0,.01,0,.02,0h0s.04,0,.05,0c.08,0,.17-.03,.26-.09l2.2-1.27,1.26,.73-3.78,2.18Z"/><path class="cls-12" d="M6.04,72.92h-1.74l-6.87,3.97-.67,.39h0v1.36h0s.04,0,.05,0c.08,0,.17-.03,.26-.09,2.34-1.35,4.68-2.7,7.03-4.06l.99-.57s.05-.03,.08-.05c.02,.02,.05,.04,.08,.05,2.34,1.35,4.68,2.7,7.03,4.06l.99,.57c.09,.05,.17,.08,.25,.08,.02,0,.03,0,.05,0h.01v-1.36h0c-2.24-1.29-4.47-2.58-6.71-3.87l-.84-.48Z"/><path class="cls-12" d="M11.09,72.92h-2.53l3.71,2.14,.99,.57c.09,.05,.17,.08,.25,.08,.02,0,.03,0,.05,0h.01v-1.36h0l-2.5-1.44Z"/><path class="cls-12" d="M-3.25,75.73s.04,0,.05,0c.08,0,.17-.03,.26-.09l4.7-2.72H-.75l-1.82,1.05-.67,.39h0v1.36h0Z"/></g></g><g class="cls-9"><g><path class="cls-12" d="M22,72.91c-.18-.17-.44-.23-.72-.08l-.15,.09h1.74l-.15-.09c-.27-.16-.54-.09-.72,.08Z"/><path class="cls-12" d="M22.71,69.92c-.27-.16-.54-.09-.72,.08-.18-.17-.44-.23-.72-.08-1.73,1-3.47,2-5.2,3h2.53l2.32-1.34,.99-.57s.05-.03,.08-.05c.02,.02,.05,.04,.08,.05l3.32,1.91h2.53c-1.4-.81-2.81-1.62-4.21-2.43l-.99-.57Z"/><path class="cls-12" d="M29.7,63.13c-2.34,1.35-4.68,2.7-7.03,4.06l-.67,.39c-2.24-1.29-4.47-2.58-6.71-3.87l-.99-.57c-.27-.16-.54-.09-.72,.08h0v.96h0s.05,.04,.08,.05l1.18,.68-1.25,.72h0v1.36h0s.04,0,.05,0c.08,0,.17-.03,.26-.09l2.2-1.27,1.26,.73c-1.26,.73-2.52,1.45-3.78,2.18h0v1.36h0s.04,0,.05,0c.08,0,.17-.03,.26-.09,1.57-.91,3.15-1.82,4.72-2.73l1.26,.73c-1.9,1.1-3.8,2.19-5.7,3.29l-.61,.35h0v1.36h0s.04,0,.05,0c.08,0,.17-.03,.26-.09l6.59-3.8,.66-.38,.53,.31c.1,.06,.21,.09,.3,.09,0,0,.01,0,.02,0h0s.04,0,.06,0c.08,0,.17-.03,.26-.09l.53-.31c2.11,1.22,4.21,2.43,6.32,3.65l.93,.53c.09,.05,.17,.08,.25,.08,.02,0,.03,0,.05,0h.01v-1.36h0c-2.09-1.21-4.18-2.41-6.27-3.62l-.03-.02,1.26-.73c1.57,.91,3.15,1.82,4.72,2.73,.09,.05,.17,.08,.25,.08,.02,0,.03,0,.05,0h.01v-1.36h0l-3.78-2.18,1.26-.73,2.2,1.27c.09,.05,.17,.08,.25,.08,.02,0,.03,0,.05,0h.01v-1.36h0l-1.25-.72,.18-.11,.99-.57s.05-.03,.08-.05h0v-.96h0c-.18-.17-.44-.23-.72-.08Z"/><path class="cls-12" d="M29.7,60.21c-2.34,1.35-4.68,2.7-7.03,4.06l-.67,.39-6.71-3.87-.99-.57c-.27-.16-.54-.09-.72,.08h0v.96h0s.05,.04,.08,.05l7.03,4.06,.99,.57c.09,.05,.17,.08,.25,.08,.02,0,.03,0,.05,0,0,0,.01,0,.02,0h0s.04,0,.05,0c.08,0,.17-.03,.26-.09,2.34-1.35,4.68-2.7,7.03-4.06l.99-.57s.05-.03,.08-.05h0v-.96h0c-.18-.17-.44-.23-.72-.08Z"/><path class="cls-12" d="M29.7,57.3c-2.34,1.35-4.68,2.7-7.03,4.06l-.67,.39c-2.24-1.29-4.47-2.58-6.71-3.87l-.99-.57c-.27-.16-.54-.09-.72,.08h0v.96h0s.05,.04,.08,.05l7.03,4.06,.99,.57c.09,.05,.17,.08,.25,.08,.02,0,.03,0,.05,0,0,0,.01,0,.02,0h0s.04,0,.05,0c.08,0,.17-.03,.26-.09,2.34-1.35,4.68-2.7,7.03-4.06l.99-.57s.05-.03,.08-.05h0v-.96h0c-.18-.17-.44-.23-.72-.08Z"/><path class="cls-12" d="M22.71,50.5c-.27-.16-.54-.09-.72,.08-.18-.17-.44-.23-.72-.08l-7.03,4.06-.67,.39h0v1.36h0s.04,0,.06,0c.08,0,.17-.03,.26-.09l.53-.31,6.32,3.65,.93,.53c.09,.05,.17,.08,.25,.08,.02,0,.03,0,.05,0,0,0,.01,0,.02,0h0s.04,0,.05,0c.08,0,.17-.03,.26-.09,2.2-1.27,4.39-2.54,6.59-3.8l.66-.38,.53,.31c.1,.06,.21,.09,.3,.09h.01v-1.36h0c-2.24-1.29-4.47-2.58-6.71-3.87l-.99-.57Zm-1.79,1.66l.99-.57s.05-.03,.08-.05c.02,.02,.05,.04,.08,.05l1.18,.68-1.25,.72-1.25-.72,.18-.11Zm1.68,6.31l-.61,.35-6.27-3.62-.03-.02,1.26-.73,4.72,2.73c.09,.05,.17,.08,.25,.08,.02,0,.03,0,.05,0,0,0,.01,0,.02,0h0s.04,0,.05,0c.08,0,.17-.03,.26-.09l4.72-2.73,1.26,.73c-1.9,1.1-3.8,2.19-5.7,3.29Zm-.61-2.56c-1.26-.73-2.52-1.45-3.78-2.18l1.26-.73,2.2,1.27c.09,.05,.17,.08,.25,.08,.02,0,.03,0,.05,0,0,0,.01,0,.02,0h0s.04,0,.05,0c.08,0,.17-.03,.26-.09l2.2-1.27,1.26,.73c-1.26,.73-2.52,1.45-3.78,2.18Z"/><path class="cls-12" d="M22.87,47.68h-1.74l-6.87,3.97-.67,.39h0v1.36h0s.04,0,.05,0c.08,0,.17-.03,.26-.09l7.03-4.06,.99-.57s.05-.03,.08-.05c.02,.02,.05,.04,.08,.05l7.03,4.06,.99,.57c.09,.05,.17,.08,.25,.08,.02,0,.03,0,.05,0h.01v-1.36h0c-2.24-1.29-4.47-2.58-6.71-3.87l-.84-.48Z"/><path class="cls-12" d="M27.92,47.68h-2.53l3.71,2.14,.99,.57c.09,.05,.17,.08,.25,.08,.02,0,.03,0,.05,0h.01v-1.36h0l-2.5-1.44Z"/><path class="cls-12" d="M13.59,50.48s.04,0,.05,0c.08,0,.17-.03,.26-.09,1.57-.91,3.14-1.81,4.7-2.72h-2.53l-1.82,1.05-.67,.39h0v1.36h0Z"/></g><g><path class="cls-12" d="M38.83,72.91c-.18-.17-.44-.23-.72-.08l-.15,.09h1.74l-.15-.09c-.27-.16-.54-.09-.72,.08Z"/><path class="cls-12" d="M39.55,69.92c-.27-.16-.54-.09-.72,.08-.18-.17-.44-.23-.72-.08-1.73,1-3.47,2-5.2,3h2.53l2.32-1.34,.99-.57s.05-.03,.08-.05c.02,.02,.05,.04,.08,.05l3.32,1.91h2.53c-1.4-.81-2.81-1.62-4.21-2.43l-.99-.57Z"/><path class="cls-12" d="M46.53,63.13c-2.34,1.35-4.68,2.7-7.03,4.06l-.67,.39c-2.24-1.29-4.47-2.58-6.71-3.87l-.99-.57c-.27-.16-.54-.09-.72,.08h0v.96h0s.05,.04,.08,.05l1.18,.68-1.25,.72h0v1.36h0s.04,0,.05,0c.08,0,.17-.03,.26-.09l2.2-1.27,1.26,.73-3.78,2.18h0v1.36h0s.04,0,.05,0c.08,0,.17-.03,.26-.09l4.72-2.73,1.26,.73c-1.9,1.1-3.8,2.19-5.7,3.29l-.61,.35h0v1.36h0s.04,0,.05,0c.08,0,.17-.03,.26-.09l6.59-3.8,.66-.38,.53,.31c.1,.06,.21,.09,.3,.09,0,0,.01,0,.02,0h0s.04,0,.06,0c.08,0,.17-.03,.26-.09l.53-.31,6.32,3.65,.93,.53c.09,.05,.17,.08,.25,.08,.02,0,.03,0,.05,0h.01v-1.36h0c-2.09-1.21-4.18-2.41-6.27-3.62l-.03-.02,1.26-.73c1.57,.91,3.15,1.82,4.72,2.73,.09,.05,.17,.08,.25,.08,.02,0,.03,0,.05,0h.01v-1.36h0l-3.78-2.18,1.26-.73,2.2,1.27c.09,.05,.17,.08,.25,.08,.02,0,.03,0,.05,0h.01v-1.36h0l-1.25-.72,.18-.11,.99-.57s.05-.03,.08-.05h0v-.96h0c-.18-.17-.44-.23-.72-.08Z"/><path class="cls-12" d="M46.53,60.21c-2.34,1.35-4.68,2.7-7.03,4.06l-.67,.39c-2.24-1.29-4.47-2.58-6.71-3.87l-.99-.57c-.27-.16-.54-.09-.72,.08h0v.96h0s.05,.04,.08,.05c2.34,1.35,4.68,2.7,7.03,4.06l.99,.57c.09,.05,.17,.08,.25,.08,.02,0,.03,0,.05,0,0,0,.01,0,.02,0h0s.04,0,.05,0c.08,0,.17-.03,.26-.09l7.03-4.06,.99-.57s.05-.03,.08-.05h0v-.96h0c-.18-.17-.44-.23-.72-.08Z"/><path class="cls-12" d="M46.53,57.3c-2.34,1.35-4.68,2.7-7.03,4.06l-.67,.39-6.71-3.87-.99-.57c-.27-.16-.54-.09-.72,.08h0v.96h0s.05,.04,.08,.05c2.34,1.35,4.68,2.7,7.03,4.06l.99,.57c.09,.05,.17,.08,.25,.08,.02,0,.03,0,.05,0,0,0,.01,0,.02,0h0s.04,0,.05,0c.08,0,.17-.03,.26-.09l7.03-4.06,.99-.57s.05-.03,.08-.05h0v-.96h0c-.18-.17-.44-.23-.72-.08Z"/><path class="cls-12" d="M39.55,50.5c-.27-.16-.54-.09-.72,.08-.18-.17-.44-.23-.72-.08-2.34,1.35-4.68,2.7-7.03,4.06l-.67,.39h0v1.36h0s.04,0,.06,0c.08,0,.17-.03,.26-.09l.53-.31c2.11,1.22,4.21,2.43,6.32,3.65l.93,.53c.09,.05,.17,.08,.25,.08,.02,0,.03,0,.05,0,0,0,.01,0,.02,0h0s.04,0,.05,0c.08,0,.17-.03,.26-.09l6.59-3.8,.66-.38,.53,.31c.1,.06,.21,.09,.3,.09h.01v-1.36h0c-2.24-1.29-4.47-2.58-6.71-3.87l-.99-.57Zm-1.79,1.66l.99-.57s.05-.03,.08-.05c.02,.02,.05,.04,.08,.05l1.18,.68-1.25,.72-1.25-.72,.18-.11Zm1.68,6.31l-.61,.35c-2.09-1.21-4.18-2.41-6.27-3.62l-.03-.02,1.26-.73,4.72,2.73c.09,.05,.17,.08,.25,.08,.02,0,.03,0,.05,0,0,0,.01,0,.02,0h0s.04,0,.05,0c.08,0,.17-.03,.26-.09l4.72-2.73,1.26,.73c-1.9,1.1-3.8,2.19-5.7,3.29Zm-.61-2.56c-1.26-.73-2.52-1.45-3.78-2.18l1.26-.73,2.2,1.27c.09,.05,.17,.08,.25,.08,.02,0,.03,0,.05,0,0,0,.01,0,.02,0h0s.04,0,.05,0c.08,0,.17-.03,.26-.09l2.2-1.27,1.26,.73c-1.26,.73-2.52,1.45-3.78,2.18Z"/><path class="cls-12" d="M39.7,47.68h-1.74c-2.29,1.32-4.58,2.65-6.87,3.97l-.67,.39h0v1.36h0s.04,0,.05,0c.08,0,.17-.03,.26-.09l7.03-4.06,.99-.57s.05-.03,.08-.05c.02,.02,.05,.04,.08,.05l7.03,4.06,.99,.57c.09,.05,.17,.08,.25,.08,.02,0,.03,0,.05,0h.01v-1.36h0c-2.24-1.29-4.47-2.58-6.71-3.87l-.84-.48Z"/><path class="cls-12" d="M44.75,47.68h-2.53l3.71,2.14,.99,.57c.09,.05,.17,.08,.25,.08,.02,0,.03,0,.05,0h.01v-1.36h0l-2.5-1.44Z"/><path class="cls-12" d="M30.42,50.48s.04,0,.05,0c.08,0,.17-.03,.26-.09,1.57-.91,3.14-1.81,4.7-2.72h-2.53l-1.82,1.05-.67,.39h0v1.36h0Z"/></g><g><path class="cls-12" d="M55.66,72.91c-.18-.17-.44-.23-.72-.08l-.15,.09h1.74l-.15-.09c-.27-.16-.54-.09-.72,.08Z"/><path class="cls-12" d="M56.38,69.92c-.27-.16-.54-.09-.72,.08-.18-.17-.44-.23-.72-.08-1.73,1-3.47,2-5.2,3h2.53l2.32-1.34,.99-.57s.05-.03,.08-.05c.02,.02,.05,.04,.08,.05l3.32,1.91h2.53c-1.4-.81-2.81-1.62-4.21-2.43l-.99-.57Z"/><path class="cls-12" d="M63.37,63.13c-2.34,1.35-4.68,2.7-7.03,4.06l-.67,.39c-2.24-1.29-4.47-2.58-6.71-3.87l-.99-.57c-.27-.16-.54-.09-.72,.08h0v.96h0s.05,.04,.08,.05l1.18,.68-1.25,.72h0v1.36h0s.04,0,.05,0c.08,0,.17-.03,.26-.09l2.2-1.27,1.26,.73c-1.26,.73-2.52,1.45-3.78,2.18h0v1.36h0s.04,0,.05,0c.08,0,.17-.03,.26-.09,1.57-.91,3.15-1.82,4.72-2.73l1.26,.73c-1.9,1.1-3.8,2.19-5.7,3.29l-.61,.35h0v1.36h0s.04,0,.05,0c.08,0,.17-.03,.26-.09l6.59-3.8,.66-.38,.53,.31c.1,.06,.21,.09,.3,.09,0,0,.01,0,.02,0h0s.04,0,.06,0c.08,0,.17-.03,.26-.09l.53-.31c2.11,1.22,4.21,2.43,6.32,3.65l.93,.53c.09,.05,.17,.08,.25,.08,.02,0,.03,0,.05,0h.01v-1.36h0c-2.09-1.21-4.18-2.41-6.27-3.62l-.03-.02,1.26-.73c1.57,.91,3.15,1.82,4.72,2.73,.09,.05,.17,.08,.25,.08,.02,0,.03,0,.05,0h.01v-1.36h0l-3.78-2.18,1.26-.73,2.2,1.27c.09,.05,.17,.08,.25,.08,.02,0,.03,0,.05,0h.01v-1.36h0l-1.25-.72,.18-.11,.99-.57s.05-.03,.08-.05h0v-.96h0c-.18-.17-.44-.23-.72-.08Z"/><path class="cls-12" d="M63.37,60.21c-2.34,1.35-4.68,2.7-7.03,4.06l-.67,.39-6.71-3.87-.99-.57c-.27-.16-.54-.09-.72,.08h0v.96h0s.05,.04,.08,.05l7.03,4.06,.99,.57c.09,.05,.17,.08,.25,.08,.02,0,.03,0,.05,0,0,0,.01,0,.02,0h0s.04,0,.05,0c.08,0,.17-.03,.26-.09,2.34-1.35,4.68-2.7,7.03-4.06l.99-.57s.05-.03,.08-.05h0v-.96h0c-.18-.17-.44-.23-.72-.08Z"/><path class="cls-12" d="M63.37,57.3c-2.34,1.35-4.68,2.7-7.03,4.06l-.67,.39c-2.24-1.29-4.47-2.58-6.71-3.87l-.99-.57c-.27-.16-.54-.09-.72,.08h0v.96h0s.05,.04,.08,.05l7.03,4.06,.99,.57c.09,.05,.17,.08,.25,.08,.02,0,.03,0,.05,0,0,0,.01,0,.02,0h0s.04,0,.05,0c.08,0,.17-.03,.26-.09,2.34-1.35,4.68-2.7,7.03-4.06l.99-.57s.05-.03,.08-.05h0v-.96h0c-.18-.17-.44-.23-.72-.08Z"/><path class="cls-12" d="M56.38,50.5c-.27-.16-.54-.09-.72,.08-.18-.17-.44-.23-.72-.08l-7.03,4.06-.67,.39h0v1.36h0s.04,0,.06,0c.08,0,.17-.03,.26-.09l.53-.31,6.32,3.65,.93,.53c.09,.05,.17,.08,.25,.08,.02,0,.03,0,.05,0,0,0,.01,0,.02,0h0s.04,0,.05,0c.08,0,.17-.03,.26-.09l6.59-3.8,.66-.38,.53,.31c.1,.06,.21,.09,.3,.09h.01v-1.36h0c-2.24-1.29-4.47-2.58-6.71-3.87l-.99-.57Zm-1.79,1.66l.99-.57s.05-.03,.08-.05c.02,.02,.05,.04,.08,.05l1.18,.68-1.25,.72-1.25-.72,.18-.11Zm1.68,6.31l-.61,.35-6.27-3.62-.03-.02,1.26-.73,4.72,2.73c.09,.05,.17,.08,.25,.08,.02,0,.03,0,.05,0,0,0,.01,0,.02,0h0s.04,0,.05,0c.08,0,.17-.03,.26-.09l4.72-2.73,1.26,.73c-1.9,1.1-3.8,2.19-5.7,3.29Zm-.61-2.56c-1.26-.73-2.52-1.45-3.78-2.18l1.26-.73,2.2,1.27c.09,.05,.17,.08,.25,.08,.02,0,.03,0,.05,0,0,0,.01,0,.02,0h0s.04,0,.05,0c.08,0,.17-.03,.26-.09l2.2-1.27,1.26,.73-3.78,2.18Z"/><path class="cls-12" d="M56.53,47.68h-1.74l-6.87,3.97-.67,.39h0v1.36h0s.04,0,.05,0c.08,0,.17-.03,.26-.09,2.34-1.35,4.68-2.7,7.03-4.06l.99-.57s.05-.03,.08-.05c.02,.02,.05,.04,.08,.05,2.34,1.35,4.68,2.7,7.03,4.06l.99,.57c.09,.05,.17,.08,.25,.08,.02,0,.03,0,.05,0h.01v-1.36h0c-2.24-1.29-4.47-2.58-6.71-3.87l-.84-.48Z"/><path class="cls-12" d="M61.58,47.68h-2.53l3.71,2.14,.99,.57c.09,.05,.17,.08,.25,.08,.02,0,.03,0,.05,0h.01v-1.36h0l-2.5-1.44Z"/><path class="cls-12" d="M47.25,50.48s.04,0,.05,0c.08,0,.17-.03,.26-.09l4.7-2.72h-2.53l-1.82,1.05-.67,.39h0v1.36h0Z"/></g><g><path class="cls-12" d="M29.7,88.38c-2.34,1.35-4.68,2.7-7.03,4.06l-.67,.39c-2.24-1.29-4.47-2.58-6.71-3.87l-.99-.57c-.27-.16-.54-.09-.72,.08h0v.96h0s.05,.04,.08,.05l1.18,.68-1.25,.72h0v1.36h0s.04,0,.05,0c.08,0,.17-.03,.26-.09l2.2-1.27,1.26,.73c-1.26,.73-2.52,1.45-3.78,2.18h0v1.36h0s.04,0,.05,0c.08,0,.17-.03,.26-.09,1.57-.91,3.15-1.82,4.72-2.73l1.26,.73c-1.9,1.1-3.8,2.19-5.7,3.29l-.61,.35h0v1.36h0s.04,0,.05,0c.08,0,.17-.03,.26-.09l6.59-3.8,.66-.38,.53,.31c.1,.06,.21,.09,.3,.09,0,0,.01,0,.02,0h0s.04,0,.06,0c.08,0,.17-.03,.26-.09l.53-.31c2.11,1.22,4.21,2.43,6.32,3.65l.93,.53c.09,.05,.17,.08,.25,.08,.02,0,.03,0,.05,0h.01v-1.36h0c-2.09-1.21-4.18-2.41-6.27-3.62l-.03-.02,1.26-.73c1.57,.91,3.15,1.82,4.72,2.73,.09,.05,.17,.08,.25,.08,.02,0,.03,0,.05,0h.01v-1.36h0l-3.78-2.18,1.26-.73,2.2,1.27c.09,.05,.17,.08,.25,.08,.02,0,.03,0,.05,0h.01v-1.36h0l-1.25-.72,.18-.11,.99-.57s.05-.03,.08-.05h0v-.96h0c-.18-.17-.44-.23-.72-.08Z"/><path class="cls-12" d="M29.7,85.46c-2.34,1.35-4.68,2.7-7.03,4.06l-.67,.39-6.71-3.87-.99-.57c-.27-.16-.54-.09-.72,.08h0v.96h0s.05,.04,.08,.05l7.03,4.06,.99,.57c.09,.05,.17,.08,.25,.08,.02,0,.03,0,.05,0,0,0,.01,0,.02,0h0s.04,0,.05,0c.08,0,.17-.03,.26-.09,2.34-1.35,4.68-2.7,7.03-4.06l.99-.57s.05-.03,.08-.05h0v-.96h0c-.18-.17-.44-.23-.72-.08Z"/><path class="cls-12" d="M29.7,82.54c-2.34,1.35-4.68,2.7-7.03,4.06l-.67,.39c-2.24-1.29-4.47-2.58-6.71-3.87l-.99-.57c-.27-.16-.54-.09-.72,.08h0v.96h0s.05,.04,.08,.05l7.03,4.06,.99,.57c.09,.05,.17,.08,.25,.08,.02,0,.03,0,.05,0,0,0,.01,0,.02,0h0s.04,0,.05,0c.08,0,.17-.03,.26-.09,2.34-1.35,4.68-2.7,7.03-4.06l.99-.57s.05-.03,.08-.05h0v-.96h0c-.18-.17-.44-.23-.72-.08Z"/><path class="cls-12" d="M22.71,75.75c-.27-.16-.54-.09-.72,.08-.18-.17-.44-.23-.72-.08l-7.03,4.06-.67,.39h0v1.36h0s.04,0,.06,0c.08,0,.17-.03,.26-.09l.53-.31,6.32,3.65,.93,.53c.09,.05,.17,.08,.25,.08,.02,0,.03,0,.05,0,0,0,.01,0,.02,0h0s.04,0,.05,0c.08,0,.17-.03,.26-.09,2.2-1.27,4.39-2.54,6.59-3.8l.66-.38,.53,.31c.1,.06,.21,.09,.3,.09h.01v-1.36h0c-2.24-1.29-4.47-2.58-6.71-3.87l-.99-.57Zm-1.79,1.66l.99-.57s.05-.03,.08-.05c.02,.02,.05,.04,.08,.05l1.18,.68-1.25,.72-1.25-.72,.18-.11Zm1.68,6.31l-.61,.35-6.27-3.62-.03-.02,1.26-.73,4.72,2.73c.09,.05,.17,.08,.25,.08,.02,0,.03,0,.05,0,0,0,.01,0,.02,0h0s.04,0,.05,0c.08,0,.17-.03,.26-.09l4.72-2.73,1.26,.73c-1.9,1.1-3.8,2.19-5.7,3.29Zm-.61-2.56c-1.26-.73-2.52-1.45-3.78-2.18l1.26-.73,2.2,1.27c.09,.05,.17,.08,.25,.08,.02,0,.03,0,.05,0,0,0,.01,0,.02,0h0s.04,0,.05,0c.08,0,.17-.03,.26-.09l2.2-1.27,1.26,.73c-1.26,.73-2.52,1.45-3.78,2.18Z"/><path class="cls-12" d="M22.87,72.92h-1.74l-6.87,3.97-.67,.39h0v1.36h0s.04,0,.05,0c.08,0,.17-.03,.26-.09l7.03-4.06,.99-.57s.05-.03,.08-.05c.02,.02,.05,.04,.08,.05l7.03,4.06,.99,.57c.09,.05,.17,.08,.25,.08,.02,0,.03,0,.05,0h.01v-1.36h0c-2.24-1.29-4.47-2.58-6.71-3.87l-.84-.48Z"/><path class="cls-12" d="M27.92,72.92h-2.53l3.71,2.14,.99,.57c.09,.05,.17,.08,.25,.08,.02,0,.03,0,.05,0h.01v-1.36h0l-2.5-1.44Z"/><path class="cls-12" d="M13.59,75.73s.04,0,.05,0c.08,0,.17-.03,.26-.09,1.57-.91,3.14-1.81,4.7-2.72h-2.53l-1.82,1.05-.67,.39h0v1.36h0Z"/></g><g><path class="cls-12" d="M46.53,88.38c-2.34,1.35-4.68,2.7-7.03,4.06l-.67,.39c-2.24-1.29-4.47-2.58-6.71-3.87l-.99-.57c-.27-.16-.54-.09-.72,.08h0v.96h0s.05,.04,.08,.05l1.18,.68-1.25,.72h0v1.36h0s.04,0,.05,0c.08,0,.17-.03,.26-.09l2.2-1.27,1.26,.73-3.78,2.18h0v1.36h0s.04,0,.05,0c.08,0,.17-.03,.26-.09l4.72-2.73,1.26,.73c-1.9,1.1-3.8,2.19-5.7,3.29l-.61,.35h0v1.36h0s.04,0,.05,0c.08,0,.17-.03,.26-.09l6.59-3.8,.66-.38,.53,.31c.1,.06,.21,.09,.3,.09,0,0,.01,0,.02,0h0s.04,0,.06,0c.08,0,.17-.03,.26-.09l.53-.31,6.32,3.65,.93,.53c.09,.05,.17,.08,.25,.08,.02,0,.03,0,.05,0h.01v-1.36h0c-2.09-1.21-4.18-2.41-6.27-3.62l-.03-.02,1.26-.73c1.57,.91,3.15,1.82,4.72,2.73,.09,.05,.17,.08,.25,.08,.02,0,.03,0,.05,0h.01v-1.36h0l-3.78-2.18,1.26-.73,2.2,1.27c.09,.05,.17,.08,.25,.08,.02,0,.03,0,.05,0h.01v-1.36h0l-1.25-.72,.18-.11,.99-.57s.05-.03,.08-.05h0v-.96h0c-.18-.17-.44-.23-.72-.08Z"/><path class="cls-12" d="M46.53,85.46c-2.34,1.35-4.68,2.7-7.03,4.06l-.67,.39c-2.24-1.29-4.47-2.58-6.71-3.87l-.99-.57c-.27-.16-.54-.09-.72,.08h0v.96h0s.05,.04,.08,.05c2.34,1.35,4.68,2.7,7.03,4.06l.99,.57c.09,.05,.17,.08,.25,.08,.02,0,.03,0,.05,0,0,0,.01,0,.02,0h0s.04,0,.05,0c.08,0,.17-.03,.26-.09l7.03-4.06,.99-.57s.05-.03,.08-.05h0v-.96h0c-.18-.17-.44-.23-.72-.08Z"/><path class="cls-12" d="M46.53,82.54c-2.34,1.35-4.68,2.7-7.03,4.06l-.67,.39-6.71-3.87-.99-.57c-.27-.16-.54-.09-.72,.08h0v.96h0s.05,.04,.08,.05c2.34,1.35,4.68,2.7,7.03,4.06l.99,.57c.09,.05,.17,.08,.25,.08,.02,0,.03,0,.05,0,0,0,.01,0,.02,0h0s.04,0,.05,0c.08,0,.17-.03,.26-.09l7.03-4.06,.99-.57s.05-.03,.08-.05h0v-.96h0c-.18-.17-.44-.23-.72-.08Z"/><path class="cls-12" d="M39.55,75.75c-.27-.16-.54-.09-.72,.08-.18-.17-.44-.23-.72-.08-2.34,1.35-4.68,2.7-7.03,4.06l-.67,.39h0v1.36h0s.04,0,.06,0c.08,0,.17-.03,.26-.09l.53-.31c2.11,1.22,4.21,2.43,6.32,3.65l.93,.53c.09,.05,.17,.08,.25,.08,.02,0,.03,0,.05,0,0,0,.01,0,.02,0h0s.04,0,.05,0c.08,0,.17-.03,.26-.09l6.59-3.8,.66-.38,.53,.31c.1,.06,.21,.09,.3,.09h.01v-1.36h0c-2.24-1.29-4.47-2.58-6.71-3.87l-.99-.57Zm-1.79,1.66l.99-.57s.05-.03,.08-.05c.02,.02,.05,.04,.08,.05l1.18,.68-1.25,.72-1.25-.72,.18-.11Zm1.68,6.31l-.61,.35c-2.09-1.21-4.18-2.41-6.27-3.62l-.03-.02,1.26-.73,4.72,2.73c.09,.05,.17,.08,.25,.08,.02,0,.03,0,.05,0,0,0,.01,0,.02,0h0s.04,0,.05,0c.08,0,.17-.03,.26-.09l4.72-2.73,1.26,.73c-1.9,1.1-3.8,2.19-5.7,3.29Zm-.61-2.56c-1.26-.73-2.52-1.45-3.78-2.18l1.26-.73,2.2,1.27c.09,.05,.17,.08,.25,.08,.02,0,.03,0,.05,0,0,0,.01,0,.02,0h0s.04,0,.05,0c.08,0,.17-.03,.26-.09l2.2-1.27,1.26,.73c-1.26,.73-2.52,1.45-3.78,2.18Z"/><path class="cls-12" d="M39.7,72.92h-1.74c-2.29,1.32-4.58,2.65-6.87,3.97l-.67,.39h0v1.36h0s.04,0,.05,0c.08,0,.17-.03,.26-.09l7.03-4.06,.99-.57s.05-.03,.08-.05c.02,.02,.05,.04,.08,.05l7.03,4.06,.99,.57c.09,.05,.17,.08,.25,.08,.02,0,.03,0,.05,0h.01v-1.36h0c-2.24-1.29-4.47-2.58-6.71-3.87l-.84-.48Z"/><path class="cls-12" d="M44.75,72.92h-2.53l3.71,2.14,.99,.57c.09,.05,.17,.08,.25,.08,.02,0,.03,0,.05,0h.01v-1.36h0l-2.5-1.44Z"/><path class="cls-12" d="M30.42,75.73s.04,0,.05,0c.08,0,.17-.03,.26-.09,1.57-.91,3.14-1.81,4.7-2.72h-2.53l-1.82,1.05-.67,.39h0v1.36h0Z"/></g><g><path class="cls-12" d="M63.37,88.38c-2.34,1.35-4.68,2.7-7.03,4.06l-.67,.39c-2.24-1.29-4.47-2.58-6.71-3.87l-.99-.57c-.27-.16-.54-.09-.72,.08h0v.96h0s.05,.04,.08,.05l1.18,.68-1.25,.72h0v1.36h0s.04,0,.05,0c.08,0,.17-.03,.26-.09l2.2-1.27,1.26,.73c-1.26,.73-2.52,1.45-3.78,2.18h0v1.36h0s.04,0,.05,0c.08,0,.17-.03,.26-.09,1.57-.91,3.15-1.82,4.72-2.73l1.26,.73c-1.9,1.1-3.8,2.19-5.7,3.29l-.61,.35h0v1.36h0s.04,0,.05,0c.08,0,.17-.03,.26-.09l6.59-3.8,.66-.38,.53,.31c.1,.06,.21,.09,.3,.09,0,0,.01,0,.02,0h0s.04,0,.06,0c.08,0,.17-.03,.26-.09l.53-.31c2.11,1.22,4.21,2.43,6.32,3.65l.93,.53c.09,.05,.17,.08,.25,.08,.02,0,.03,0,.05,0h.01v-1.36h0c-2.09-1.21-4.18-2.41-6.27-3.62l-.03-.02,1.26-.73c1.57,.91,3.15,1.82,4.72,2.73,.09,.05,.17,.08,.25,.08,.02,0,.03,0,.05,0h.01v-1.36h0l-3.78-2.18,1.26-.73,2.2,1.27c.09,.05,.17,.08,.25,.08,.02,0,.03,0,.05,0h.01v-1.36h0l-1.25-.72,.18-.11,.99-.57s.05-.03,.08-.05h0v-.96h0c-.18-.17-.44-.23-.72-.08Z"/><path class="cls-12" d="M63.37,85.46c-2.34,1.35-4.68,2.7-7.03,4.06l-.67,.39-6.71-3.87-.99-.57c-.27-.16-.54-.09-.72,.08h0v.96h0s.05,.04,.08,.05l7.03,4.06,.99,.57c.09,.05,.17,.08,.25,.08,.02,0,.03,0,.05,0,0,0,.01,0,.02,0h0s.04,0,.05,0c.08,0,.17-.03,.26-.09,2.34-1.35,4.68-2.7,7.03-4.06l.99-.57s.05-.03,.08-.05h0v-.96h0c-.18-.17-.44-.23-.72-.08Z"/><path class="cls-12" d="M63.37,82.54c-2.34,1.35-4.68,2.7-7.03,4.06l-.67,.39c-2.24-1.29-4.47-2.58-6.71-3.87l-.99-.57c-.27-.16-.54-.09-.72,.08h0v.96h0s.05,.04,.08,.05l7.03,4.06,.99,.57c.09,.05,.17,.08,.25,.08,.02,0,.03,0,.05,0,0,0,.01,0,.02,0h0s.04,0,.05,0c.08,0,.17-.03,.26-.09,2.34-1.35,4.68-2.7,7.03-4.06l.99-.57s.05-.03,.08-.05h0v-.96h0c-.18-.17-.44-.23-.72-.08Z"/><path class="cls-12" d="M56.38,75.75c-.27-.16-.54-.09-.72,.08-.18-.17-.44-.23-.72-.08l-7.03,4.06-.67,.39h0v1.36h0s.04,0,.06,0c.08,0,.17-.03,.26-.09l.53-.31,6.32,3.65,.93,.53c.09,.05,.17,.08,.25,.08,.02,0,.03,0,.05,0,0,0,.01,0,.02,0h0s.04,0,.05,0c.08,0,.17-.03,.26-.09l6.59-3.8,.66-.38,.53,.31c.1,.06,.21,.09,.3,.09h.01v-1.36h0c-2.24-1.29-4.47-2.58-6.71-3.87l-.99-.57Zm-1.79,1.66l.99-.57s.05-.03,.08-.05c.02,.02,.05,.04,.08,.05l1.18,.68-1.25,.72-1.25-.72,.18-.11Zm1.68,6.31l-.61,.35-6.27-3.62-.03-.02,1.26-.73,4.72,2.73c.09,.05,.17,.08,.25,.08,.02,0,.03,0,.05,0,0,0,.01,0,.02,0h0s.04,0,.05,0c.08,0,.17-.03,.26-.09l4.72-2.73,1.26,.73c-1.9,1.1-3.8,2.19-5.7,3.29Zm-.61-2.56c-1.26-.73-2.52-1.45-3.78-2.18l1.26-.73,2.2,1.27c.09,.05,.17,.08,.25,.08,.02,0,.03,0,.05,0,0,0,.01,0,.02,0h0s.04,0,.05,0c.08,0,.17-.03,.26-.09l2.2-1.27,1.26,.73-3.78,2.18Z"/><path class="cls-12" d="M56.53,72.92h-1.74l-6.87,3.97-.67,.39h0v1.36h0s.04,0,.05,0c.08,0,.17-.03,.26-.09,2.34-1.35,4.68-2.7,7.03-4.06l.99-.57s.05-.03,.08-.05c.02,.02,.05,.04,.08,.05,2.34,1.35,4.68,2.7,7.03,4.06l.99,.57c.09,.05,.17,.08,.25,.08,.02,0,.03,0,.05,0h.01v-1.36h0c-2.24-1.29-4.47-2.58-6.71-3.87l-.84-.48Z"/><path class="cls-12" d="M61.58,72.92h-2.53l3.71,2.14,.99,.57c.09,.05,.17,.08,.25,.08,.02,0,.03,0,.05,0h.01v-1.36h0l-2.5-1.44Z"/><path class="cls-12" d="M47.25,75.73s.04,0,.05,0c.08,0,.17-.03,.26-.09l4.7-2.72h-2.53l-1.82,1.05-.67,.39h0v1.36h0Z"/></g></g><g class="cls-9"><g><path class="cls-12" d="M71.97,72.91c-.18-.17-.44-.23-.72-.08l-.15,.09h1.74l-.15-.09c-.27-.16-.54-.09-.72,.08Z"/><path class="cls-12" d="M72.69,69.92c-.27-.16-.54-.09-.72,.08-.18-.17-.44-.23-.72-.08-1.73,1-3.47,2-5.2,3h2.53l2.32-1.34,.99-.57s.05-.03,.08-.05c.02,.02,.05,.04,.08,.05l3.32,1.91h2.53c-1.4-.81-2.81-1.62-4.21-2.43l-.99-.57Z"/><path class="cls-12" d="M79.67,63.13c-2.34,1.35-4.68,2.7-7.03,4.06l-.67,.39c-2.24-1.29-4.47-2.58-6.71-3.87l-.99-.57c-.27-.16-.54-.09-.72,.08h0v.96h0s.05,.04,.08,.05l1.18,.68-1.25,.72h0v1.36h0s.04,0,.05,0c.08,0,.17-.03,.26-.09l2.2-1.27,1.26,.73c-1.26,.73-2.52,1.45-3.78,2.18h0v1.36h0s.04,0,.05,0c.08,0,.17-.03,.26-.09,1.57-.91,3.15-1.82,4.72-2.73l1.26,.73c-1.9,1.1-3.8,2.19-5.7,3.29l-.61,.35h0v1.36h0s.04,0,.05,0c.08,0,.17-.03,.26-.09l6.59-3.8,.66-.38,.53,.31c.1,.06,.21,.09,.3,.09,0,0,.01,0,.02,0h0s.04,0,.06,0c.08,0,.17-.03,.26-.09l.53-.31c2.11,1.22,4.21,2.43,6.32,3.65l.93,.53c.09,.05,.17,.08,.25,.08,.02,0,.03,0,.05,0h.01v-1.36h0c-2.09-1.21-4.18-2.41-6.27-3.62l-.03-.02,1.26-.73c1.57,.91,3.15,1.82,4.72,2.73,.09,.05,.17,.08,.25,.08,.02,0,.03,0,.05,0h.01v-1.36h0l-3.78-2.18,1.26-.73,2.2,1.27c.09,.05,.17,.08,.25,.08,.02,0,.03,0,.05,0h.01v-1.36h0l-1.25-.72,.18-.11,.99-.57s.05-.03,.08-.05h0v-.96h0c-.18-.17-.44-.23-.72-.08Z"/><path class="cls-12" d="M79.67,60.21c-2.34,1.35-4.68,2.7-7.03,4.06l-.67,.39-6.71-3.87-.99-.57c-.27-.16-.54-.09-.72,.08h0v.96h0s.05,.04,.08,.05l7.03,4.06,.99,.57c.09,.05,.17,.08,.25,.08,.02,0,.03,0,.05,0,0,0,.01,0,.02,0h0s.04,0,.05,0c.08,0,.17-.03,.26-.09,2.34-1.35,4.68-2.7,7.03-4.06l.99-.57s.05-.03,.08-.05h0v-.96h0c-.18-.17-.44-.23-.72-.08Z"/><path class="cls-12" d="M79.67,57.3c-2.34,1.35-4.68,2.7-7.03,4.06l-.67,.39c-2.24-1.29-4.47-2.58-6.71-3.87l-.99-.57c-.27-.16-.54-.09-.72,.08h0v.96h0s.05,.04,.08,.05l7.03,4.06,.99,.57c.09,.05,.17,.08,.25,.08,.02,0,.03,0,.05,0,0,0,.01,0,.02,0h0s.04,0,.05,0c.08,0,.17-.03,.26-.09,2.34-1.35,4.68-2.7,7.03-4.06l.99-.57s.05-.03,.08-.05h0v-.96h0c-.18-.17-.44-.23-.72-.08Z"/><path class="cls-12" d="M72.69,50.5c-.27-.16-.54-.09-.72,.08-.18-.17-.44-.23-.72-.08l-7.03,4.06-.67,.39h0v1.36h0s.04,0,.06,0c.08,0,.17-.03,.26-.09l.53-.31,6.32,3.65,.93,.53c.09,.05,.17,.08,.25,.08,.02,0,.03,0,.05,0,0,0,.01,0,.02,0h0s.04,0,.05,0c.08,0,.17-.03,.26-.09,2.2-1.27,4.39-2.54,6.59-3.8l.66-.38,.53,.31c.1,.06,.21,.09,.3,.09h.01v-1.36h0c-2.24-1.29-4.47-2.58-6.71-3.87l-.99-.57Zm-1.79,1.66l.99-.57s.05-.03,.08-.05c.02,.02,.05,.04,.08,.05l1.18,.68-1.25,.72-1.25-.72,.18-.11Zm1.68,6.31l-.61,.35-6.27-3.62-.03-.02,1.26-.73,4.72,2.73c.09,.05,.17,.08,.25,.08,.02,0,.03,0,.05,0,0,0,.01,0,.02,0h0s.04,0,.05,0c.08,0,.17-.03,.26-.09l4.72-2.73,1.26,.73c-1.9,1.1-3.8,2.19-5.7,3.29Zm-.61-2.56c-1.26-.73-2.52-1.45-3.78-2.18l1.26-.73,2.2,1.27c.09,.05,.17,.08,.25,.08,.02,0,.03,0,.05,0,0,0,.01,0,.02,0h0s.04,0,.05,0c.08,0,.17-.03,.26-.09l2.2-1.27,1.26,.73c-1.26,.73-2.52,1.45-3.78,2.18Z"/><path class="cls-12" d="M72.84,47.68h-1.74l-6.87,3.97-.67,.39h0v1.36h0s.04,0,.05,0c.08,0,.17-.03,.26-.09l7.03-4.06,.99-.57s.05-.03,.08-.05c.02,.02,.05,.04,.08,.05l7.03,4.06,.99,.57c.09,.05,.17,.08,.25,.08,.02,0,.03,0,.05,0h.01v-1.36h0c-2.24-1.29-4.47-2.58-6.71-3.87l-.84-.48Z"/><path class="cls-12" d="M63.56,50.48s.04,0,.05,0c.08,0,.17-.03,.26-.09,1.57-.91,3.14-1.81,4.7-2.72h-2.53l-1.82,1.05-.67,.39h0v1.36h0Z"/></g><g><path class="cls-12" d="M79.67,88.38c-2.34,1.35-4.68,2.7-7.03,4.06l-.67,.39c-2.24-1.29-4.47-2.58-6.71-3.87l-.99-.57c-.27-.16-.54-.09-.72,.08h0v.96h0s.05,.04,.08,.05l1.18,.68-1.25,.72h0v1.36h0s.04,0,.05,0c.08,0,.17-.03,.26-.09l2.2-1.27,1.26,.73c-1.26,.73-2.52,1.45-3.78,2.18h0v1.36h0s.04,0,.05,0c.08,0,.17-.03,.26-.09,1.57-.91,3.15-1.82,4.72-2.73l1.26,.73c-1.9,1.1-3.8,2.19-5.7,3.29l-.61,.35h0v1.36h0s.04,0,.05,0c.08,0,.17-.03,.26-.09l6.59-3.8,.66-.38,.53,.31c.1,.06,.21,.09,.3,.09,0,0,.01,0,.02,0h0s.04,0,.06,0c.08,0,.17-.03,.26-.09l.53-.31c2.11,1.22,4.21,2.43,6.32,3.65l.93,.53c.09,.05,.17,.08,.25,.08,.02,0,.03,0,.05,0h.01v-1.36h0c-2.09-1.21-4.18-2.41-6.27-3.62l-.03-.02,1.26-.73c1.57,.91,3.15,1.82,4.72,2.73,.09,.05,.17,.08,.25,.08,.02,0,.03,0,.05,0h.01v-1.36h0l-3.78-2.18,1.26-.73,2.2,1.27c.09,.05,.17,.08,.25,.08,.02,0,.03,0,.05,0h.01v-1.36h0l-1.25-.72,.18-.11,.99-.57s.05-.03,.08-.05h0v-.96h0c-.18-.17-.44-.23-.72-.08Z"/><path class="cls-12" d="M79.67,85.46c-2.34,1.35-4.68,2.7-7.03,4.06l-.67,.39-6.71-3.87-.99-.57c-.27-.16-.54-.09-.72,.08h0v.96h0s.05,.04,.08,.05l7.03,4.06,.99,.57c.09,.05,.17,.08,.25,.08,.02,0,.03,0,.05,0,0,0,.01,0,.02,0h0s.04,0,.05,0c.08,0,.17-.03,.26-.09,2.34-1.35,4.68-2.7,7.03-4.06l.99-.57s.05-.03,.08-.05h0v-.96h0c-.18-.17-.44-.23-.72-.08Z"/><path class="cls-12" d="M79.67,82.54c-2.34,1.35-4.68,2.7-7.03,4.06l-.67,.39c-2.24-1.29-4.47-2.58-6.71-3.87l-.99-.57c-.27-.16-.54-.09-.72,.08h0v.96h0s.05,.04,.08,.05l7.03,4.06,.99,.57c.09,.05,.17,.08,.25,.08,.02,0,.03,0,.05,0,0,0,.01,0,.02,0h0s.04,0,.05,0c.08,0,.17-.03,.26-.09,2.34-1.35,4.68-2.7,7.03-4.06l.99-.57s.05-.03,.08-.05h0v-.96h0c-.18-.17-.44-.23-.72-.08Z"/><path class="cls-12" d="M72.69,75.75c-.27-.16-.54-.09-.72,.08-.18-.17-.44-.23-.72-.08l-7.03,4.06-.67,.39h0v1.36h0s.04,0,.06,0c.08,0,.17-.03,.26-.09l.53-.31,6.32,3.65,.93,.53c.09,.05,.17,.08,.25,.08,.02,0,.03,0,.05,0,0,0,.01,0,.02,0h0s.04,0,.05,0c.08,0,.17-.03,.26-.09,2.2-1.27,4.39-2.54,6.59-3.8l.66-.38,.53,.31c.1,.06,.21,.09,.3,.09h.01v-1.36h0c-2.24-1.29-4.47-2.58-6.71-3.87l-.99-.57Zm-1.79,1.66l.99-.57s.05-.03,.08-.05c.02,.02,.05,.04,.08,.05l1.18,.68-1.25,.72-1.25-.72,.18-.11Zm1.68,6.31l-.61,.35-6.27-3.62-.03-.02,1.26-.73,4.72,2.73c.09,.05,.17,.08,.25,.08,.02,0,.03,0,.05,0,0,0,.01,0,.02,0h0s.04,0,.05,0c.08,0,.17-.03,.26-.09l4.72-2.73,1.26,.73c-1.9,1.1-3.8,2.19-5.7,3.29Zm-.61-2.56c-1.26-.73-2.52-1.45-3.78-2.18l1.26-.73,2.2,1.27c.09,.05,.17,.08,.25,.08,.02,0,.03,0,.05,0,0,0,.01,0,.02,0h0s.04,0,.05,0c.08,0,.17-.03,.26-.09l2.2-1.27,1.26,.73c-1.26,.73-2.52,1.45-3.78,2.18Z"/><path class="cls-12" d="M72.84,72.92h-1.74l-6.87,3.97-.67,.39h0v1.36h0s.04,0,.05,0c.08,0,.17-.03,.26-.09l7.03-4.06,.99-.57s.05-.03,.08-.05c.02,.02,.05,.04,.08,.05l7.03,4.06,.99,.57c.09,.05,.17,.08,.25,.08,.02,0,.03,0,.05,0h.01v-1.36h0c-2.24-1.29-4.47-2.58-6.71-3.87l-.84-.48Z"/><path class="cls-12" d="M63.56,75.73s.04,0,.05,0c.08,0,.17-.03,.26-.09,1.57-.91,3.14-1.81,4.7-2.72h-2.53l-1.82,1.05-.67,.39h0v1.36h0Z"/></g></g></g></g></g></g></g></g></svg>